<svg xmlns="http://www.w3.org/2000/svg" viewBox="0 0 906 738" width="906" height="738">
	<style>
		tspan { white-space:pre }
		.shp0 { fill: #e6e6e6 } 
		.shp1 { fill: #123f54 } 
		.shp2 { fill: #ffffff } 
		.shp3 { fill: none } 
		.shp4 { fill: #65617d } 
		.shp5 { fill: #dce0ed } 
		.shp6 { opacity: 0.102;fill: #000000 } 
		.shp7 { opacity: 0.102;fill: #ffffff } 
		.shp8 { fill: #dda2a6 } 
		.shp9 { fill: #b77b7f } 
		.shp10 { opacity: 0.302;fill: #ffffff } 
		.shp11 { fill: #3f3d56 } 
		.shp12 { fill: #cccccc } 
		.shp13 { fill: #f2f2f2 } 
		.shp14 { fill: #2f2e41 } 
		.shp15 { fill: #9f616a } 
		.shp16 { fill: none;stroke: #006837;stroke-width: 4 } 
		.shp17 { fill: #006837 } 
	</style>
	<g id="AI_Studio">
		<g id="Computer">
			<path id="Layer" class="shp0" d="M564.79 737.79L339.86 737.79L347.49 638.67L557.17 638.67L564.79 737.79L564.79 737.79Z" />
			<path id="Layer" class="shp1" d="M883.13 0.09L23.43 0.09C10.8 0.09 0.56 12.09 0.56 26.79L0.56 26.79L0.56 638.67L906 638.67L906 26.79C906 12.05 895.76 0.09 883.13 0.09Z" />
			<path id="Layer" class="shp0" d="M46.31 55.72L862.16 55.72L862.16 589.72L46.31 589.72L46.31 55.72Z" />
			<path id="Layer" class="shp1" d="M470.46 704.46C461.56 713.36 447.1 713.31 438.13 704.34C429.15 695.36 429.09 680.91 438 672.01C446.9 663.1 461.35 663.16 470.32 672.13C479.3 681.1 479.36 695.55 470.46 704.46Z" />
			<path id="Layer" class="shp2" d="M71.75 67.07C69.35 67.07 67.41 65.13 67.41 62.73C67.41 60.33 69.35 58.39 71.75 58.39C74.15 58.39 76.09 60.33 76.09 62.73C76.09 65.13 74.15 67.07 71.75 67.07Z" />
			<path id="Layer" class="shp2" d="M88.22 67.07C85.82 67.07 83.88 65.13 83.88 62.73C83.88 60.33 85.82 58.39 88.22 58.39C90.62 58.39 92.56 60.33 92.56 62.73C92.56 65.13 90.62 67.07 88.22 67.07Z" />
			<path id="Layer" class="shp2" d="M104.7 67.07C102.3 67.07 100.36 65.13 100.36 62.73C100.36 60.33 102.3 58.39 104.7 58.39C107.1 58.39 109.04 60.33 109.04 62.73C109.04 65.13 107.1 67.07 104.7 67.07Z" />
			<path id="Layer" class="shp2" d="M67.41 77.48L838.65 77.48L838.65 573.45L67.41 573.45L67.41 77.48Z" />
			<path id="Layer" class="shp0" d="M119.46 122.08C119 122.08 118.54 122.17 118.12 122.35C117.69 122.52 117.3 122.78 116.98 123.11C116.65 123.43 116.39 123.82 116.22 124.25C116.04 124.67 115.95 125.13 115.95 125.59L115.95 303.23C115.95 303.69 116.04 304.15 116.22 304.57C116.39 305 116.65 305.39 116.98 305.71C117.3 306.04 117.69 306.3 118.12 306.47C118.54 306.65 119 306.74 119.46 306.74L324.6 306.74C325.06 306.74 325.52 306.65 325.94 306.47C326.37 306.3 326.76 306.04 327.08 305.71C327.41 305.39 327.67 305 327.84 304.57C328.02 304.15 328.11 303.69 328.11 303.23L328.11 125.59C328.11 125.13 328.02 124.67 327.84 124.25C327.67 123.82 327.41 123.43 327.08 123.11C326.76 122.78 326.37 122.52 325.94 122.35C325.52 122.17 325.06 122.08 324.6 122.08L119.46 122.08Z" />
			<path id="Layer" class="shp0" d="M119.46 347.56C119 347.56 118.54 347.65 118.12 347.83C117.69 348.01 117.3 348.27 116.98 348.59C116.65 348.92 116.39 349.31 116.22 349.74C116.04 350.16 115.95 350.62 115.95 351.08L115.95 528.71C115.95 529.17 116.04 529.63 116.22 530.05C116.39 530.48 116.65 530.87 116.98 531.2C117.3 531.52 117.69 531.78 118.12 531.96C118.54 532.14 119 532.23 119.46 532.23L324.6 532.23C325.06 532.23 325.52 532.14 325.94 531.96C326.37 531.78 326.76 531.52 327.08 531.2C327.41 530.87 327.67 530.48 327.84 530.05C328.02 529.63 328.11 529.17 328.11 528.71L328.11 351.08C328.11 350.62 328.02 350.16 327.84 349.74C327.67 349.31 327.41 348.92 327.08 348.59C326.76 348.27 326.37 348.01 325.94 347.83C325.52 347.65 325.06 347.56 324.6 347.56L119.46 347.56Z" />
		</g>
		<g id="Moto">
			<path id="Layer" class="shp3" d="M258.51 417.88L253.51 418.26C253.51 418.26 270.51 462.09 270.25 471.79C270.16 475 272.25 473.79 275.01 470.79C274.6 466.15 273.94 461.54 273.03 456.98C272.13 452.41 270.98 447.89 269.6 443.45C268.21 439.01 266.59 434.64 264.74 430.37C262.88 426.1 260.81 421.93 258.51 417.88L258.51 417.88Z" />
			<path id="Layer" class="shp4" d="M274.76 467.68C271.58 467.68 268.42 468.31 265.48 469.53C262.54 470.74 259.87 472.53 257.62 474.78C255.37 477.03 253.58 479.7 252.37 482.64C251.15 485.58 250.52 488.74 250.52 491.92C250.52 492.21 250.52 492.5 250.52 492.79L250.52 492.79C250.52 493.19 250.52 493.58 250.6 493.98C251.43 503.55 257.84 511.73 266.94 514.83C276.03 517.92 286.1 515.35 292.6 508.27C299.09 501.19 300.79 490.93 296.92 482.14C293.05 473.34 284.35 467.66 274.74 467.66L274.76 467.68Z" />
			<path id="Layer" class="shp5" d="M274.76 505.14C267.45 505.14 261.54 499.23 261.54 491.92C261.54 484.61 267.45 478.7 274.76 478.7C282.07 478.7 287.98 484.61 287.98 491.92C287.98 499.23 282.07 505.14 274.76 505.14Z" />
			<path id="Layer" class="shp4" d="M274.76 499.85C270.37 499.85 266.83 496.31 266.83 491.92C266.83 487.53 270.37 483.99 274.76 483.99C279.15 483.99 282.69 487.53 282.69 491.92C282.69 496.31 279.15 499.85 274.76 499.85Z" />
			<path id="Layer" class="shp4" d="M210.57 442C210.46 441.24 210.34 440.42 210.21 439.59C210.04 438.53 209.86 437.46 209.67 436.48C209.59 436.07 209.44 435.67 209.22 435.31C209.01 434.94 208.73 434.62 208.41 434.35C208.09 434.08 207.72 433.86 207.32 433.72C206.93 433.57 206.51 433.49 206.09 433.48C202.21 433.42 194.31 432.79 181.93 429.48C180.7 429.15 179.46 428.88 178.21 428.66C176.96 428.45 175.7 428.3 174.44 428.2C173.17 428.11 171.9 428.07 170.64 428.1C169.37 428.12 168.1 428.21 166.84 428.35C160.36 429.11 153.26 431.54 152.74 438.46L152.74 447.08L211.11 445.9C211.11 445.9 210.89 444.17 210.57 442Z" />
			<path id="Layer" class="shp1" d="M258.84 493.45C261.15 493.3 263.41 492.69 265.48 491.67C267.56 490.64 269.41 489.22 270.94 487.48C272.47 485.74 273.64 483.72 274.38 481.53C275.13 479.34 275.44 477.02 275.29 474.71C275.2 473.44 275.1 472.12 274.97 470.71C274.56 466.08 273.9 461.47 273 456.91C272.1 452.34 270.95 447.83 269.57 443.39C268.19 438.95 266.57 434.58 264.72 430.31C262.88 426.05 260.8 421.88 258.51 417.83L258.51 417.83L253.51 418.21L245.62 418.8C245.62 418.8 246.2 420.07 247.05 422.23C250.48 430.94 258.44 454.23 251.84 468.53C251.37 469.53 250.98 470.6 250.59 471.65C250.32 472.27 250.01 472.86 249.65 473.43C249.29 474 248.89 474.54 248.44 475.05C248 475.56 247.52 476.03 247.01 476.47C246.49 476.9 245.94 477.3 245.37 477.65C244.41 478.3 243.39 478.89 242.34 479.39C241.29 479.89 240.2 480.31 239.08 480.65C237.97 480.99 236.83 481.24 235.67 481.41C234.52 481.58 233.36 481.66 232.19 481.65L207 481.65C207 481.65 196.62 466.96 210.34 452.47C210.34 452.47 216.72 447.14 212.34 443.06C212.16 442.9 211.98 442.75 211.79 442.6C211.6 442.45 211.4 442.32 211.2 442.18C211 442.05 210.79 441.93 210.58 441.82C210.37 441.7 210.16 441.6 209.94 441.5L160.78 441.1C159.91 440.96 159.02 440.89 158.14 440.9C157.25 440.9 156.37 440.99 155.5 441.15C154.63 441.31 153.78 441.54 152.95 441.84C152.12 442.15 151.32 442.53 150.55 442.97L150.55 442.97C146.78 445.28 143.28 450.06 142.77 459.71C142.27 469.05 141.01 475.04 139.77 478.85C139.5 479.61 139.17 480.34 138.78 481.04C138.38 481.75 137.93 482.41 137.42 483.03C136.91 483.65 136.34 484.23 135.73 484.75C135.12 485.27 134.46 485.74 133.77 486.15C132.4 486.97 131.12 488.36 132.04 490.54C132.23 490.97 132.47 491.36 132.78 491.72C133.08 492.07 133.43 492.38 133.82 492.64C134.21 492.89 134.64 493.08 135.08 493.21C135.53 493.34 135.99 493.4 136.46 493.4L257.67 493.4L258.84 493.45Z" />
			<path id="Layer" class="shp6" d="M210.21 439.56L152.74 439.56L152.74 442L210.57 442C210.46 441.21 210.34 440.39 210.21 439.56Z" />
			<path id="Layer" class="shp6" d="M209.93 441.58L160.77 441.18C159.9 441.04 159.01 440.97 158.13 440.98C157.24 440.98 156.36 441.07 155.49 441.23C154.62 441.39 153.77 441.62 152.94 441.92C152.11 442.23 151.31 442.61 150.54 443.05C150.58 443.07 150.61 443.08 150.65 443.09C150.69 443.1 150.73 443.11 150.77 443.12C150.8 443.13 150.84 443.13 150.88 443.13C150.92 443.14 150.96 443.14 151 443.14L212.33 443.14C212.15 442.98 211.97 442.83 211.78 442.68C211.59 442.53 211.39 442.4 211.19 442.26C210.99 442.13 210.78 442.01 210.57 441.9C210.36 441.78 210.15 441.68 209.93 441.58Z" />
			<path id="Layer" class="shp5" d="M129.54 440.15L212.85 440.15C213.51 440.15 214.05 440.69 214.05 441.35L214.05 441.36C214.05 442.02 213.51 442.56 212.85 442.56L129.54 442.56C128.88 442.56 128.34 442.02 128.34 441.36L128.34 441.35C128.34 440.69 128.88 440.15 129.54 440.15Z" />
			<path id="Layer" class="shp6" d="M258.51 417.88L253.51 418.26C253.51 418.26 270.51 462.09 270.25 471.79C270.16 475 272.25 473.79 275.01 470.79C274.6 466.15 273.94 461.54 273.03 456.98C272.13 452.41 270.98 447.89 269.6 443.45C268.21 439.01 266.59 434.64 264.74 430.37C262.88 426.1 260.81 421.93 258.51 417.88L258.51 417.88Z" />
			<path id="Layer" class="shp6" d="M298.86 489.26C298.45 485.57 297.21 482.02 295.21 478.89C293.22 475.75 290.53 473.12 287.36 471.19C284.19 469.26 280.62 468.08 276.92 467.74C273.22 467.41 269.5 467.93 266.03 469.26C264.64 484.63 256.03 490.54 250.54 492.75L250.54 492.75L250.62 493.94C254.54 493.85 258.21 493.73 261.62 493.58C263.46 493.49 265.23 493.4 266.93 493.3C272.93 492.94 278.16 492.47 282.66 491.94C284.54 491.72 286.3 491.49 287.94 491.25C292.35 490.6 295.94 489.89 298.83 489.25L298.86 489.26Z" />
			<path id="Layer" class="shp1" d="M310.31 484.34C310.31 484.34 295.07 474.68 286.52 467.68C277.97 460.68 264.22 448.07 264.22 448.07C273.8 490.47 245.97 493.48 245.97 493.48C301.21 492.85 310.31 484.34 310.31 484.34Z" />
			<path id="Layer" class="shp7" d="M310.31 484.34C310.31 484.34 295.07 474.68 286.52 467.68C277.97 460.68 264.22 448.07 264.22 448.07C273.8 490.47 245.97 493.48 245.97 493.48C301.21 492.85 310.31 484.34 310.31 484.34Z" />
			<path id="Layer" class="shp4" d="M171.64 516.16C158.24 516.16 147.4 505.32 147.4 491.92C147.4 478.52 158.24 467.68 171.64 467.68C185.04 467.68 195.88 478.52 195.88 491.92C195.88 505.32 185.04 516.16 171.64 516.16Z" />
			<path id="Layer" class="shp5" d="M171.64 505.14C164.33 505.14 158.42 499.23 158.42 491.92C158.42 484.61 164.33 478.7 171.64 478.7C178.95 478.7 184.86 484.61 184.86 491.92C184.86 499.23 178.95 505.14 171.64 505.14Z" />
			<path id="Layer" class="shp4" d="M171.64 499.85C167.25 499.85 163.71 496.31 163.71 491.92C163.71 487.53 167.25 483.99 171.64 483.99C176.03 483.99 179.57 487.53 179.57 491.92C179.57 496.31 176.03 499.85 171.64 499.85Z" />
			<path id="Layer" class="shp6" d="M198.75 486.6L143.35 486.6C143.35 485.95 143.29 485.3 143.29 484.6C143.29 484.22 143.29 483.83 143.29 483.45C143.44 476.09 146.51 469.09 151.83 463.99C157.14 458.89 164.27 456.11 171.63 456.26C178.99 456.41 185.99 459.48 191.09 464.8C196.19 470.11 198.97 477.24 198.82 484.6C198.82 485.3 198.79 486 198.75 486.6Z" />
			<path id="Layer" class="shp1" d="M197.72 486L144.38 486C144.38 485.37 144.31 484.74 144.31 484.11L144.31 483.01C144.33 475.83 147.23 468.96 152.36 463.95C157.5 458.93 164.43 456.19 171.61 456.33C178.79 456.48 185.6 459.51 190.53 464.73C195.45 469.95 198.07 476.94 197.79 484.11C197.79 484.78 197.77 485.41 197.72 486Z" />
			<path id="Layer" class="shp7" d="M197.79 484.15C197.79 483.78 197.79 483.42 197.79 483.05C197.77 475.87 194.87 469 189.74 463.99C184.6 458.97 177.67 456.23 170.49 456.37C163.31 456.52 156.5 459.55 151.57 464.77C146.65 469.99 144.03 476.98 144.31 484.15C144.31 484.59 144.31 485.02 144.31 485.45L144.31 486.04L197.65 486.04C197.65 485.84 197.65 485.65 197.65 485.45C197.65 485.02 197.65 484.59 197.65 484.15L197.79 484.15Z" />
			<path id="Layer" class="shp6" d="M144.35 485.45L144.35 486.04L197.69 486.04C197.69 485.84 197.69 485.65 197.69 485.45L144.35 485.45Z" />
			<path id="Layer" class="shp6" d="M135.75 486.63L201.32 486.63C203.05 486.63 204.45 488.03 204.45 489.76L204.45 489.77C204.45 491.5 203.05 492.9 201.32 492.9L135.75 492.9C134.02 492.9 132.62 491.5 132.62 489.77L132.62 489.76C132.62 488.03 134.02 486.63 135.75 486.63Z" />
			<path id="Layer" class="shp5" d="M135.75 486.04L201.32 486.04C203.05 486.04 204.45 487.44 204.45 489.17L204.45 489.18C204.45 490.91 203.05 492.31 201.32 492.31L135.75 492.31C134.02 492.31 132.62 490.91 132.62 489.18L132.62 489.17C132.62 487.44 134.02 486.04 135.75 486.04Z" />
			<path id="Layer" class="shp6" d="M270.18 445.2C268.4 446 265.34 443.04 263.32 438.58C261.3 434.11 261.1 429.86 262.88 429.06C264.65 428.25 267.71 431.21 269.73 435.68C271.75 440.14 271.95 444.4 270.18 445.2Z" />
			<path id="Layer" class="shp5" d="M270.47 444.9C268.69 445.7 265.63 442.74 263.61 438.28C261.59 433.81 261.39 429.55 263.17 428.75C264.94 427.95 268.01 430.91 270.02 435.38C272.04 439.84 272.24 444.1 270.47 444.9Z" />
			<path id="Layer" class="shp6" d="M253.47 418.26L245.58 418.85C245.58 418.85 246.16 420.12 247.01 422.28C247.22 422.31 247.42 422.34 247.63 422.37C247.84 422.39 248.04 422.42 248.25 422.43C248.46 422.45 248.67 422.46 248.87 422.47C249.08 422.48 249.29 422.48 249.5 422.48L258.5 422.48L258.5 417.88L253.47 418.26Z" />
			<path id="Layer" class="shp1" d="M258.46 395.18L249.46 394.37C241.59 394.37 235.21 400.26 235.21 407.52L235.21 408.74C235.21 416.01 241.59 421.89 249.46 421.89L258.46 421.89L258.46 395.18Z" />
			<path id="Layer" class="shp1" d="M234.07 402.16L236.24 415.49C242.24 416.08 245.97 409.87 245.97 409.87C249.06 405.02 243.7 402.16 243.7 402.16C241.2 401.5 234.07 402.16 234.07 402.16Z" />
			<path id="Layer" class="shp6" d="M234.07 402.16L236.24 415.49C242.24 416.08 245.97 409.87 245.97 409.87C246.28 409.46 246.52 409.01 246.68 408.53C246.84 408.05 246.93 407.54 246.93 407.03C246.93 406.52 246.84 406.01 246.68 405.53C246.52 405.05 246.28 404.6 245.97 404.19C245.72 403.85 245.43 403.54 245.1 403.26C244.78 402.99 244.43 402.75 244.06 402.55C243.68 402.35 243.28 402.2 242.87 402.09C242.46 401.98 242.04 401.92 241.62 401.9C240.99 401.89 240.36 401.88 239.73 401.88C239.1 401.89 238.47 401.9 237.84 401.92C237.21 401.94 236.58 401.97 235.95 402.01C235.33 402.05 234.7 402.1 234.07 402.16L234.07 402.16Z" />
			<path id="Layer" class="shp6" d="M258.17 421.89L258.17 395.18L258.17 395.18C259.12 395.18 260.05 395.37 260.92 395.73C261.8 396.09 262.59 396.62 263.26 397.29C263.93 397.96 264.46 398.75 264.82 399.63C265.18 400.5 265.37 401.43 265.37 402.38L265.37 414.7L265.37 414.7C265.37 415.64 265.18 416.58 264.82 417.45C264.46 418.32 263.93 419.12 263.26 419.78C262.59 420.45 261.8 420.98 260.92 421.34C260.05 421.7 259.11 421.89 258.17 421.89L258.17 421.89Z" />
			<path id="Layer" class="shp5" d="M258.46 421.89L258.46 395.18L258.46 395.18C259.41 395.18 260.34 395.37 261.22 395.73C262.09 396.09 262.88 396.62 263.55 397.29C264.22 397.96 264.75 398.75 265.11 399.62C265.47 400.5 265.66 401.43 265.66 402.38L265.66 414.7L265.66 414.7C265.66 415.65 265.47 416.58 265.11 417.45C264.75 418.33 264.22 419.12 263.55 419.79C262.88 420.46 262.09 420.98 261.21 421.35C260.34 421.71 259.41 421.89 258.46 421.89L258.46 421.89Z" />
			<path id="Layer" class="shp1" d="M233.45 416.33C230.16 416.33 227.5 413.09 227.5 409.09C227.5 405.09 230.16 401.85 233.45 401.85C236.74 401.85 239.4 405.09 239.4 409.09C239.4 413.09 236.74 416.33 233.45 416.33Z" />
			<path id="Layer" class="shp8" d="M143.78 399.67L135.13 408.55L166.59 409.1L176.16 399.67L143.78 399.67L143.78 399.67Z" />
			<path id="Layer" class="shp9" d="M166.59 440.7L166.59 409.1L176.16 399.67L176.16 431.95L166.59 440.7L166.59 440.7Z" />
			<path id="Layer" class="shp8" d="M166.59 409.1L166.59 440.7L135.13 440.7L135.13 408.55L166.59 409.1L166.59 409.1Z" />
			<path id="Layer" class="shp10" d="M166.59 409.1L166.59 440.7L135.13 440.7L135.13 408.55L166.59 409.1L166.59 409.1Z" />
			<path id="Layer" class="shp5" d="M161.67 433.72L137.59 429.29L140.64 413.93L164.03 417.95L161.67 433.72L161.67 433.72Z" />
			<path id="Layer" class="shp1" d="M159.02 423.79L143.29 421.12L143.68 419.07L159.41 421.53L159.02 423.79L159.02 423.79Z" />
			<path id="Layer" class="shp1" d="M155.09 428.21L145.75 426.9L146.14 424.62L155.09 425.92L155.09 428.21L155.09 428.21Z" />
			<path id="Layer" class="shp4" d="M169.83 419.07L169.4 406.33L171.87 403.9L172.29 416.61L169.83 419.07L169.83 419.07Z" />
			<path id="Layer" class="shp4" d="M138.61 404.98L168.56 405.83L169.4 406.33L171.87 403.9L170.85 403.33L140.62 402.92L138.61 404.98L138.61 404.98Z" />
		</g>
		<g id="Carro">
			<path id="Layer" class="shp11" d="M128.29 242.92L150.41 242.92L150.41 246.43L128.29 246.43L128.29 242.92Z" />
			<path id="Layer" class="shp1" d="M310.31 243.71L305.75 244.77L132.32 244.86L130.76 241.23C130.08 239.68 129.52 238.09 129.06 236.46C128.6 234.83 128.26 233.17 128.04 231.5C127.81 229.82 127.7 228.13 127.7 226.44C127.71 224.75 127.83 223.06 128.07 221.39C128.81 216.39 130.69 211.39 134.94 209.22L142.63 158L238.63 157.83L275.75 187.77C275.75 187.77 293.26 187.46 302.75 199.3C303.6 200.39 304.37 201.55 305.05 202.76C305.73 203.96 306.32 205.22 306.81 206.52C307.3 207.81 307.69 209.14 307.99 210.5C308.28 211.85 308.47 213.23 308.56 214.61L308.94 220.77L310.31 243.71Z" />
			<path id="Layer" class="shp11" d="M272.22 264.26C260.38 264.26 250.81 254.69 250.81 242.85C250.81 231.01 260.38 221.44 272.22 221.44C284.06 221.44 293.63 231.01 293.63 242.85C293.63 254.69 284.06 264.26 272.22 264.26Z" />
			<path id="Layer" class="shp12" d="M272.22 254.12C265.99 254.12 260.95 249.08 260.95 242.85C260.95 236.62 265.99 231.58 272.22 231.58C278.45 231.58 283.49 236.62 283.49 242.85C283.49 249.08 278.45 254.12 272.22 254.12Z" />
			<path id="Layer" class="shp11" d="M166.55 264.32C154.71 264.32 145.14 254.75 145.14 242.91C145.14 231.07 154.71 221.5 166.55 221.5C178.39 221.5 187.96 231.07 187.96 242.91C187.96 254.75 178.39 264.32 166.55 264.32Z" />
			<path id="Layer" class="shp12" d="M166.55 254.18C160.32 254.18 155.28 249.14 155.28 242.91C155.28 236.68 160.32 231.64 166.55 231.64C172.78 231.64 177.82 236.68 177.82 242.91C177.82 249.14 172.78 254.18 166.55 254.18Z" />
			<path id="Layer" class="shp2" d="M260.96 184.23L209.15 184.26L202.83 184.26L192.15 184.26L192.15 183.49L192.14 174.1L192.13 163.56L199.24 163.56L205.56 163.55L216.76 163.54L223.09 163.54L236.02 163.53L260.96 184.23L260.96 184.23Z" />
			<path id="Layer" class="shp2" d="M183.72 184.27L156.34 184.29L156.34 178.92L156.34 169.53L156.33 163.58L160.34 163.58L166.66 163.57L183.71 163.56L183.72 184.27L183.72 184.27Z" />
			<path id="Layer" class="shp11" d="M192.16 199.71L195.67 199.71L195.67 206.38L192.16 206.38L192.16 199.71Z" />
			<path id="Layer" class="shp11" d="M246.92 190.21L253.59 190.21L253.59 193.72L246.92 193.72L246.92 190.21Z" />
			<path id="Layer" class="shp11" d="M249.37 177.07L249.76 177.07C250.72 177.07 251.68 177.26 252.57 177.63C253.46 178 254.27 178.54 254.95 179.22C255.63 179.9 256.17 180.71 256.54 181.6C256.91 182.49 257.1 183.45 257.1 184.41L257.1 184.41C257.1 185.37 256.91 186.33 256.54 187.22C256.17 188.11 255.63 188.92 254.95 189.6C254.27 190.28 253.46 190.82 252.57 191.19C251.68 191.56 250.72 191.75 249.76 191.75L249.37 191.75L249.37 177.07Z" />
			<path id="Layer" class="shp11" d="M308.92 220.73C306.27 221.02 303.59 220.36 301.38 218.87C299.16 217.39 297.54 215.16 296.8 212.6C296.06 210.03 296.25 207.29 297.33 204.85C298.42 202.41 300.33 200.43 302.73 199.26C303.58 200.35 304.35 201.51 305.03 202.72C305.71 203.92 306.3 205.18 306.79 206.48C307.28 207.77 307.67 209.1 307.97 210.46C308.26 211.81 308.45 213.19 308.54 214.57L308.92 220.73Z" />
			<path id="Layer" class="shp13" d="M205.56 163.55L192.15 183.49L192.14 174.1L199.24 163.56L205.56 163.55L205.56 163.55Z" />
			<path id="Layer" class="shp13" d="M166.66 163.57L156.34 178.92L156.34 169.53L160.34 163.58L166.66 163.57L166.66 163.57Z" />
			<path id="Layer" class="shp13" d="M223.09 163.54L209.15 184.26L202.83 184.26L216.76 163.54L223.09 163.54L223.09 163.54Z" />
		</g>
		<path id="Layer" class="shp0" d="M343 122.08C342.54 122.08 342.08 122.17 341.66 122.35C341.23 122.52 340.84 122.78 340.52 123.11C340.19 123.43 339.93 123.82 339.76 124.25C339.58 124.67 339.49 125.13 339.49 125.59L339.49 303.23C339.49 303.69 339.58 304.15 339.76 304.57C339.93 305 340.19 305.39 340.52 305.71C340.84 306.04 341.23 306.3 341.66 306.47C342.08 306.65 342.54 306.74 343 306.74L548.11 306.74C548.57 306.74 549.03 306.65 549.45 306.47C549.88 306.3 550.27 306.04 550.59 305.71C550.92 305.39 551.18 305 551.35 304.57C551.53 304.15 551.62 303.69 551.62 303.23L551.62 125.59C551.62 125.13 551.53 124.67 551.35 124.25C551.18 123.82 550.92 123.43 550.59 123.11C550.27 122.78 549.88 122.52 549.45 122.35C549.03 122.17 548.57 122.08 548.11 122.08L343 122.08Z" />
		<g id="Carro-2">
			<path id="Layer" class="shp11" d="M351.8 242.92L373.92 242.92L373.92 246.43L351.8 246.43L351.8 242.92Z" />
			<path id="Layer" class="shp1" d="M533.82 243.71L529.26 244.77L355.83 244.86L354.27 241.23C353.59 239.68 353.03 238.09 352.57 236.46C352.11 234.83 351.77 233.17 351.55 231.5C351.32 229.82 351.21 228.13 351.21 226.44C351.22 224.75 351.34 223.06 351.58 221.39C352.32 216.39 354.2 211.39 358.45 209.22L366.14 158L462.14 157.83L499.26 187.77C499.26 187.77 516.77 187.46 526.26 199.3C527.11 200.39 527.88 201.55 528.56 202.76C529.24 203.96 529.83 205.22 530.32 206.52C530.81 207.81 531.2 209.14 531.5 210.5C531.79 211.85 531.98 213.23 532.07 214.61L532.45 220.77L533.82 243.71Z" />
			<path id="Layer" class="shp11" d="M495.73 264.26C483.89 264.26 474.32 254.69 474.32 242.85C474.32 231.01 483.89 221.44 495.73 221.44C507.57 221.44 517.14 231.01 517.14 242.85C517.14 254.69 507.57 264.26 495.73 264.26Z" />
			<path id="Layer" class="shp12" d="M495.73 254.12C489.5 254.12 484.46 249.08 484.46 242.85C484.46 236.62 489.5 231.58 495.73 231.58C501.96 231.58 507 236.62 507 242.85C507 249.08 501.96 254.12 495.73 254.12Z" />
			<path id="Layer" class="shp11" d="M390.06 264.32C378.22 264.32 368.65 254.75 368.65 242.91C368.65 231.07 378.22 221.5 390.06 221.5C401.9 221.5 411.47 231.07 411.47 242.91C411.47 254.75 401.9 264.32 390.06 264.32Z" />
			<path id="Layer" class="shp12" d="M390.06 254.18C383.83 254.18 378.79 249.14 378.79 242.91C378.79 236.68 383.83 231.64 390.06 231.64C396.29 231.64 401.33 236.68 401.33 242.91C401.33 249.14 396.29 254.18 390.06 254.18Z" />
			<path id="Layer" class="shp2" d="M484.46 184.23L432.66 184.26L426.34 184.26L415.66 184.26L415.66 183.49L415.65 174.1L415.64 163.56L422.75 163.56L429.07 163.55L440.27 163.54L446.6 163.54L459.53 163.53L484.46 184.23L484.46 184.23Z" />
			<path id="Layer" class="shp2" d="M407.23 184.27L379.85 184.29L379.85 178.92L379.85 169.53L379.84 163.58L383.85 163.58L390.17 163.57L407.22 163.56L407.23 184.27L407.23 184.27Z" />
			<path id="Layer" class="shp11" d="M415.67 199.71L419.18 199.71L419.18 206.38L415.67 206.38L415.67 199.71Z" />
			<path id="Layer" class="shp11" d="M470.43 190.21L477.1 190.21L477.1 193.72L470.43 193.72L470.43 190.21Z" />
			<path id="Layer" class="shp11" d="M472.88 177.07L473.27 177.07C474.23 177.07 475.19 177.26 476.08 177.63C476.97 178 477.77 178.54 478.45 179.22C479.13 179.9 479.67 180.71 480.04 181.6C480.41 182.49 480.6 183.45 480.6 184.41L480.6 184.41C480.6 185.37 480.41 186.33 480.04 187.22C479.67 188.11 479.13 188.92 478.45 189.6C477.77 190.28 476.97 190.82 476.08 191.19C475.19 191.56 474.23 191.75 473.27 191.75L472.88 191.75L472.88 177.07Z" />
			<path id="Layer" class="shp11" d="M532.43 220.73C529.78 221.02 527.1 220.36 524.89 218.87C522.67 217.39 521.05 215.16 520.31 212.6C519.57 210.03 519.76 207.29 520.84 204.85C521.93 202.41 523.84 200.43 526.24 199.26C527.09 200.35 527.86 201.51 528.54 202.72C529.22 203.92 529.81 205.18 530.3 206.48C530.79 207.77 531.18 209.1 531.48 210.46C531.77 211.81 531.96 213.19 532.05 214.57L532.43 220.73Z" />
			<path id="Layer" class="shp13" d="M429.07 163.55L415.66 183.49L415.65 174.1L422.75 163.56L429.07 163.55L429.07 163.55Z" />
			<path id="Layer" class="shp13" d="M390.17 163.57L379.85 178.92L379.85 169.53L383.85 163.58L390.17 163.57L390.17 163.57Z" />
			<path id="Layer" class="shp13" d="M446.6 163.54L432.66 184.26L426.34 184.26L440.27 163.54L446.6 163.54L446.6 163.54Z" />
		</g>
		<path id="Layer" class="shp0" d="M568.46 122.08C568 122.08 567.54 122.17 567.12 122.35C566.69 122.52 566.3 122.78 565.97 123.11C565.65 123.43 565.39 123.82 565.21 124.25C565.03 124.67 564.94 125.13 564.94 125.59L564.94 303.23C564.94 303.69 565.03 304.15 565.21 304.57C565.39 305 565.65 305.39 565.97 305.71C566.3 306.04 566.69 306.3 567.12 306.47C567.54 306.65 568 306.74 568.46 306.74L773.6 306.74C774.06 306.74 774.52 306.65 774.94 306.47C775.37 306.3 775.76 306.04 776.08 305.71C776.41 305.39 776.67 305 776.84 304.57C777.02 304.15 777.11 303.69 777.11 303.23L777.11 125.59C777.11 125.13 777.02 124.67 776.84 124.25C776.67 123.82 776.41 123.43 776.08 123.11C775.76 122.78 775.37 122.52 774.94 122.35C774.52 122.17 774.06 122.08 773.6 122.08L568.46 122.08Z" />
		<path id="Layer" class="shp0" d="M345 345.59C344.54 345.59 344.08 345.68 343.66 345.86C343.23 346.03 342.84 346.29 342.51 346.62C342.19 346.94 341.93 347.33 341.75 347.76C341.57 348.18 341.48 348.64 341.48 349.1L341.48 526.74C341.48 527.2 341.57 527.66 341.75 528.08C341.93 528.51 342.19 528.9 342.51 529.22C342.84 529.55 343.23 529.81 343.66 529.98C344.08 530.16 344.54 530.25 345 530.25L550.09 530.25C550.55 530.25 551.01 530.16 551.43 529.98C551.86 529.81 552.25 529.55 552.57 529.22C552.9 528.9 553.16 528.51 553.33 528.08C553.51 527.66 553.6 527.2 553.6 526.74L553.6 349.1C553.6 348.64 553.51 348.18 553.33 347.76C553.16 347.33 552.9 346.94 552.57 346.62C552.25 346.29 551.86 346.03 551.43 345.86C551.01 345.68 550.55 345.59 550.09 345.59L345 345.59Z" />
		<g id="Carro-3">
			<path id="Layer" class="shp11" d="M353.77 466.43L375.89 466.43L375.89 469.94L353.77 469.94L353.77 466.43Z" />
			<path id="Layer" class="shp1" d="M535.8 467.22L531.24 468.28L357.81 468.37L356.25 464.74C355.57 463.19 355.01 461.6 354.55 459.97C354.09 458.34 353.75 456.68 353.53 455.01C353.3 453.33 353.19 451.64 353.19 449.95C353.2 448.26 353.32 446.57 353.56 444.9C354.3 439.9 356.17 434.9 360.43 432.73L368.12 381.47L464.12 381.3L501.24 411.24C501.24 411.24 518.75 410.93 528.24 422.77C529.09 423.86 529.85 425.02 530.53 426.23C531.2 427.44 531.79 428.69 532.28 429.99C532.76 431.29 533.15 432.62 533.44 433.97C533.73 435.32 533.92 436.7 534 438.08L534.38 444.24L535.8 467.22Z" />
			<path id="Layer" class="shp11" d="M497.71 487.77C485.87 487.77 476.3 478.2 476.3 466.36C476.3 454.52 485.87 444.95 497.71 444.95C509.55 444.95 519.12 454.52 519.12 466.36C519.12 478.2 509.55 487.77 497.71 487.77Z" />
			<path id="Layer" class="shp12" d="M497.71 477.63C491.48 477.63 486.44 472.59 486.44 466.36C486.44 460.13 491.48 455.09 497.71 455.09C503.94 455.09 508.98 460.13 508.98 466.36C508.98 472.59 503.94 477.63 497.71 477.63Z" />
			<path id="Layer" class="shp11" d="M392.04 487.83C380.2 487.83 370.63 478.26 370.63 466.42C370.63 454.58 380.2 445.01 392.04 445.01C403.88 445.01 413.45 454.58 413.45 466.42C413.45 478.26 403.88 487.83 392.04 487.83Z" />
			<path id="Layer" class="shp12" d="M392.04 477.69C385.81 477.69 380.77 472.65 380.77 466.42C380.77 460.19 385.81 455.15 392.04 455.15C398.27 455.15 403.31 460.19 403.31 466.42C403.31 472.65 398.27 477.69 392.04 477.69Z" />
			<path id="Layer" class="shp2" d="M486.44 407.74L434.64 407.77L428.32 407.77L417.64 407.77L417.64 407L417.63 397.61L417.62 387.06L424.73 387.06L431.05 387.06L442.25 387.05L448.58 387.05L461.51 387.04L486.44 407.74L486.44 407.74Z" />
			<path id="Layer" class="shp2" d="M409.21 407.78L381.83 407.8L381.82 402.42L381.82 393.04L381.82 387.09L385.82 387.09L392.15 387.08L409.2 387.07L409.21 407.78L409.21 407.78Z" />
			<path id="Layer" class="shp11" d="M417.65 423.22L421.16 423.22L421.16 429.89L417.65 429.89L417.65 423.22Z" />
			<path id="Layer" class="shp11" d="M472.41 413.71L479.08 413.71L479.08 417.22L472.41 417.22L472.41 413.71Z" />
			<path id="Layer" class="shp11" d="M474.86 400.58L475.25 400.58C476.21 400.58 477.17 400.77 478.06 401.14C478.95 401.51 479.75 402.05 480.43 402.73C481.11 403.41 481.65 404.22 482.02 405.11C482.39 406 482.58 406.96 482.58 407.92L482.58 407.92C482.58 408.88 482.39 409.84 482.02 410.73C481.65 411.62 481.11 412.43 480.43 413.11C479.75 413.79 478.95 414.33 478.06 414.7C477.17 415.07 476.21 415.26 475.25 415.26L474.86 415.26L474.86 400.58Z" />
			<path id="Layer" class="shp11" d="M534.41 444.24C531.76 444.53 529.08 443.87 526.87 442.38C524.65 440.9 523.03 438.67 522.29 436.11C521.55 433.54 521.74 430.8 522.82 428.36C523.91 425.92 525.82 423.94 528.22 422.77C529.07 423.86 529.84 425.02 530.51 426.23C531.19 427.44 531.77 428.69 532.26 429.99C532.75 431.29 533.14 432.62 533.43 433.97C533.73 435.32 533.91 436.7 534 438.08L534.41 444.24Z" />
			<path id="Layer" class="shp13" d="M431.05 387.06L417.64 407L417.63 397.61L424.73 387.06L431.05 387.06L431.05 387.06Z" />
			<path id="Layer" class="shp13" d="M392.15 387.08L381.82 402.42L381.82 393.04L385.82 387.09L392.15 387.08L392.15 387.08Z" />
			<path id="Layer" class="shp13" d="M448.58 387.05L434.64 407.77L428.32 407.77L442.25 387.05L448.58 387.05L448.58 387.05Z" />
		</g>
		<path id="Layer" class="shp0" d="M570.44 345.59C569.98 345.59 569.52 345.68 569.09 345.85C568.67 346.03 568.28 346.29 567.95 346.61C567.62 346.94 567.37 347.33 567.19 347.75C567.01 348.18 566.92 348.64 566.92 349.1L566.92 526.74C566.92 527.2 567.01 527.66 567.19 528.09C567.37 528.51 567.62 528.9 567.95 529.23C568.28 529.55 568.67 529.81 569.09 529.99C569.52 530.16 569.98 530.25 570.44 530.25L775.58 530.25C776.04 530.25 776.5 530.16 776.92 529.98C777.35 529.81 777.74 529.55 778.06 529.22C778.39 528.9 778.65 528.51 778.82 528.08C779 527.66 779.09 527.2 779.09 526.74L779.09 349.1C779.09 348.64 779 348.18 778.82 347.76C778.65 347.33 778.39 346.94 778.06 346.62C777.74 346.29 777.35 346.03 776.92 345.86C776.5 345.68 776.04 345.59 775.58 345.59L570.44 345.59Z" />
		<g id="Carro-4">
			<path id="Layer" class="shp11" d="M579.26 466.43L601.38 466.43L601.38 469.94L579.26 469.94L579.26 466.43Z" />
			<path id="Layer" class="shp1" d="M761.29 467.22L756.73 468.28L583.3 468.37L581.74 464.74C581.06 463.19 580.5 461.6 580.04 459.97C579.58 458.34 579.24 456.68 579.01 455.01C578.79 453.33 578.67 451.64 578.68 449.95C578.68 448.26 578.8 446.57 579.04 444.9C579.79 439.9 581.66 434.9 585.91 432.73L593.61 381.47L689.61 381.3L726.73 411.24C726.73 411.24 744.24 410.93 753.73 422.77C754.58 423.86 755.35 425.02 756.03 426.23C756.71 427.43 757.3 428.69 757.79 429.99C758.28 431.28 758.68 432.61 758.97 433.97C759.27 435.32 759.46 436.7 759.55 438.08L759.92 444.24L761.29 467.22Z" />
			<path id="Layer" class="shp11" d="M723.2 487.77C711.36 487.77 701.79 478.2 701.79 466.36C701.79 454.52 711.36 444.95 723.2 444.95C735.04 444.95 744.61 454.52 744.61 466.36C744.61 478.2 735.04 487.77 723.2 487.77Z" />
			<path id="Layer" class="shp12" d="M723.2 477.63C716.97 477.63 711.93 472.59 711.93 466.36C711.93 460.13 716.97 455.09 723.2 455.09C729.43 455.09 734.47 460.13 734.47 466.36C734.47 472.59 729.43 477.63 723.2 477.63Z" />
			<path id="Layer" class="shp11" d="M617.53 487.83C605.69 487.83 596.12 478.26 596.12 466.42C596.12 454.58 605.69 445.01 617.53 445.01C629.37 445.01 638.94 454.58 638.94 466.42C638.94 478.26 629.37 487.83 617.53 487.83Z" />
			<path id="Layer" class="shp12" d="M617.53 477.69C611.3 477.69 606.26 472.65 606.26 466.42C606.26 460.19 611.3 455.15 617.53 455.15C623.76 455.15 628.8 460.19 628.8 466.42C628.8 472.65 623.76 477.69 617.53 477.69Z" />
			<path id="Layer" class="shp2" d="M711.93 407.74L660.13 407.77L653.8 407.77L643.13 407.77L643.13 407L643.12 397.61L643.11 387.06L650.21 387.06L656.54 387.06L667.74 387.05L674.06 387.05L686.99 387.04L711.93 407.74L711.93 407.74Z" />
			<path id="Layer" class="shp2" d="M634.7 407.78L607.32 407.8L607.31 402.42L607.31 393.04L607.3 387.09L611.31 387.09L617.63 387.08L634.69 387.07L634.7 407.78L634.7 407.78Z" />
			<path id="Layer" class="shp11" d="M643.13 423.22L646.64 423.22L646.64 429.89L643.13 429.89L643.13 423.22Z" />
			<path id="Layer" class="shp11" d="M697.89 413.71L704.56 413.71L704.56 417.22L697.89 417.22L697.89 413.71Z" />
			<path id="Layer" class="shp11" d="M700.35 400.58L700.73 400.58C701.69 400.58 702.65 400.77 703.54 401.14C704.43 401.51 705.24 402.05 705.92 402.73C706.6 403.41 707.14 404.22 707.51 405.11C707.88 406 708.07 406.96 708.07 407.92L708.07 407.92C708.07 408.88 707.88 409.84 707.51 410.73C707.14 411.62 706.6 412.43 705.92 413.11C705.24 413.79 704.43 414.33 703.54 414.7C702.65 415.07 701.69 415.26 700.73 415.26L700.35 415.26L700.35 400.58Z" />
			<path id="Layer" class="shp11" d="M759.89 444.24C757.24 444.53 754.56 443.87 752.35 442.38C750.13 440.9 748.51 438.67 747.77 436.11C747.03 433.54 747.22 430.8 748.3 428.36C749.39 425.92 751.3 423.94 753.7 422.77C754.55 423.86 755.32 425.02 756 426.23C756.68 427.43 757.27 428.69 757.76 429.99C758.25 431.28 758.65 432.61 758.94 433.97C759.24 435.32 759.43 436.7 759.52 438.08L759.89 444.24Z" />
			<path id="Layer" class="shp13" d="M656.54 387.06L643.13 407L643.12 397.61L650.21 387.06L656.54 387.06L656.54 387.06Z" />
			<path id="Layer" class="shp13" d="M617.63 387.08L607.31 402.42L607.31 393.04L611.31 387.09L617.63 387.08L617.63 387.08Z" />
			<path id="Layer" class="shp13" d="M674.06 387.05L660.13 407.77L653.8 407.77L667.74 387.05L674.06 387.05L674.06 387.05Z" />
		</g>
	</g>
	<path id="Layer" class="shp0" d="M593.43 291.53L593.43 128.11L744.06 128.11L744.06 291.53" />
	<path id="Layer" class="shp14" d="M666.75 167.67C666.45 167.64 666.15 167.64 665.85 167.66C665.55 167.68 665.25 167.73 664.95 167.79C664.66 167.86 664.37 167.94 664.09 168.05C663.8 168.16 663.53 168.29 663.27 168.44C663.02 168.65 662.78 168.88 662.56 169.12C662.34 169.36 662.13 169.61 661.93 169.87C661.73 170.13 661.55 170.4 661.38 170.68C661.21 170.96 661.06 171.25 660.92 171.55C660.29 172.67 659.6 173.75 658.85 174.79C658.11 175.84 657.31 176.84 656.46 177.8C655.61 178.76 654.72 179.68 653.77 180.55C652.83 181.42 651.84 182.23 650.81 183C647.81 185.21 643.98 187.95 644.49 192C644.56 192.34 644.64 192.67 644.74 193C644.83 193.32 644.94 193.65 645.06 193.97C645.19 194.29 645.32 194.6 645.47 194.91C645.62 195.21 645.79 195.52 645.96 195.81C648.73 201.4 656.3 205.73 655.55 212.12C658.31 207.5 654.62 205.22 657.38 200.61C658.69 198.41 660.97 195.94 662.95 197.31C663.61 197.78 664.05 198.6 664.74 199.01C666.39 200.01 668.14 198.13 669.6 196.82C674.6 192.3 681.78 193.49 688.04 194.89C691.04 195.56 694.24 196.43 696.04 199.25C698.34 202.97 693.86 206.98 692.72 211.17C692.64 211.46 692.63 211.77 692.67 212.06C692.71 212.36 692.81 212.65 692.97 212.91C693.12 213.17 693.32 213.39 693.56 213.57C693.8 213.75 694.08 213.89 694.37 213.96C694.44 213.98 694.5 213.99 694.57 214C694.64 214.01 694.7 214.02 694.77 214.03C694.84 214.03 694.91 214.03 694.98 214.03C695.04 214.03 695.11 214.03 695.18 214.02C697.06 213.84 699.28 213.68 699.39 212.86C701.76 212.94 704.65 212.68 705.66 210.22C705.74 209.98 705.81 209.73 705.87 209.49C705.93 209.24 705.98 208.99 706.02 208.74C706.06 208.49 706.09 208.23 706.11 207.98C706.13 207.73 706.15 207.47 706.15 207.22C706.52 203.08 708.28 199.31 709.44 195.38C710.6 191.45 711.1 186.84 709.14 183.38C708.97 183.09 708.78 182.81 708.59 182.53C708.39 182.25 708.19 181.99 707.97 181.73C707.76 181.46 707.53 181.21 707.3 180.97C707.06 180.72 706.82 180.49 706.57 180.26C695.4 169.43 680.76 167.65 666.75 167.67Z" />
	<path id="Layer" class="shp15" d="M658 220.16C658 220.16 660.42 240.33 651.55 241.95C642.68 243.57 659.62 270.95 659.62 270.95L699.96 275.79L690.27 243.52C690.27 243.52 683.82 241.1 687.85 224.96C691.88 208.82 658 220.16 658 220.16Z" />
	<path id="Layer" class="shp15" d="M676.13 233.47C662.75 233.47 651.93 222.65 651.93 209.27C651.93 195.89 662.75 185.07 676.13 185.07C689.51 185.07 700.33 195.89 700.33 209.27C700.33 222.65 689.51 233.47 676.13 233.47Z" />
	<path id="Layer" class="shp1" d="M634.47 291.53C638.75 274.7 644.66 252.03 644.66 252.03C644.66 252.03 646.96 252.5 650.58 253.03C651.9 253.23 653.23 253.41 654.56 253.56C655.89 253.72 657.23 253.86 658.56 253.99C659.89 254.11 661.23 254.21 662.57 254.29C663.9 254.37 665.24 254.44 666.58 254.48C673.42 254.67 680.58 254.22 686.19 252.29C686.71 252.12 687.23 251.93 687.74 251.72C688.24 251.5 688.74 251.27 689.22 251.01C689.71 250.75 690.18 250.47 690.64 250.17C691.1 249.86 691.55 249.54 691.98 249.2C692.16 249.06 692.34 248.9 692.51 248.75C692.68 248.59 692.85 248.43 693.01 248.26C693.18 248.1 693.33 247.92 693.48 247.75C693.64 247.57 693.78 247.39 693.92 247.2C703.6 234.29 707.63 283.5 707.63 283.5L708.38 291.5" />
	<path id="Layer" class="shp14" d="M667.93 174C667.69 173.98 667.44 173.98 667.2 174C666.96 174.01 666.72 174.04 666.48 174.09C666.24 174.13 666 174.2 665.77 174.27C665.54 174.35 665.32 174.44 665.1 174.55C664.9 174.69 664.71 174.85 664.53 175.02C664.35 175.18 664.18 175.36 664.02 175.54C663.86 175.72 663.71 175.92 663.57 176.12C663.43 176.32 663.3 176.53 663.18 176.74C662.64 177.55 662.07 178.33 661.45 179.07C660.83 179.82 660.18 180.53 659.49 181.21C658.8 181.89 658.07 182.53 657.31 183.13C656.56 183.74 655.77 184.3 654.95 184.82C652.5 186.38 649.39 188.32 649.81 191.19C649.87 191.43 649.93 191.67 650.01 191.9C650.09 192.13 650.18 192.36 650.28 192.58C650.38 192.81 650.49 193.03 650.61 193.24C650.73 193.46 650.86 193.67 651 193.87C651.56 194.86 652.04 195.9 652.44 196.96C652.84 198.03 653.14 199.13 653.36 200.25C653.58 201.37 653.71 202.5 653.74 203.64C653.78 204.78 653.72 205.92 653.57 207.05L660.3 197.27C661.37 195.72 663.22 193.97 664.84 194.94C665.38 195.27 665.73 195.85 666.29 196.14C667.63 196.82 669.06 195.52 670.29 194.59C674.38 191.4 680.21 192.23 685.29 193.23C687.7 193.7 690.29 194.31 691.76 196.31C694.12 199.63 691.66 204.42 693.04 208.25C693.23 208.12 693.41 207.96 693.57 207.79C693.73 207.62 693.88 207.44 694 207.24C694.13 207.04 694.23 206.83 694.31 206.61C694.39 206.39 694.45 206.16 694.49 205.93C696.42 205.99 698.77 205.8 699.6 204.06C699.66 203.89 699.72 203.72 699.76 203.54C699.81 203.37 699.85 203.19 699.89 203.01C699.92 202.83 699.94 202.65 699.96 202.47C699.98 202.29 699.99 202.11 699.99 201.93C700.29 199.01 701.72 196.35 702.67 193.57C703.62 190.79 704.03 187.57 702.43 185.06C702.28 184.85 702.13 184.65 701.97 184.45C701.81 184.26 701.64 184.07 701.47 183.88C701.29 183.7 701.11 183.52 700.92 183.35C700.73 183.18 700.54 183.02 700.34 182.86C691.25 175.24 679.34 174 667.93 174Z" />
	<path id="Layer" class="shp14" d="M666.36 291.53C667.04 284.4 667.55 277.73 667.75 271.97C668.04 263.97 667.75 257.7 666.54 254.48C666.49 254.33 666.43 254.18 666.37 254.04C666.31 253.89 666.24 253.75 666.17 253.61C666.09 253.48 666.01 253.34 665.92 253.21C665.83 253.08 665.74 252.95 665.64 252.83C660.12 246.52 656.84 237.32 656.64 236.91L656.64 236.91C656.64 236.91 647.84 231.91 645.42 236.71C643 241.51 620.42 253.65 617.99 253.65L617.93 253.65C616.93 253.97 604.93 258.34 601.86 274.65C601.65 276.05 601.46 277.45 601.3 278.86C601.14 280.26 601.01 281.67 600.89 283.08C600.78 284.49 600.7 285.9 600.63 287.32C600.57 288.73 600.53 290.15 600.52 291.56" />
	<path id="Layer" class="shp14" d="M732.08 291.53C731.45 288.63 730.78 285.74 730.05 282.87C729.32 279.99 728.55 277.13 727.73 274.28C726.9 271.43 726.03 268.6 725.11 265.78C724.19 262.96 723.22 260.16 722.21 257.37L722.11 256.87C722.08 256.76 722.05 256.66 722.01 256.55C721.98 256.45 721.94 256.35 721.89 256.25C721.85 256.15 721.8 256.05 721.74 255.95C721.69 255.86 721.63 255.76 721.57 255.67C716.91 248.45 686.94 238.51 686.94 238.51L685.82 242.38C685.82 242.38 685.96 246.2 686.16 252.32C686.36 258.05 686.6 265.79 686.83 274.32C686.99 279.87 687.13 285.75 687.26 291.59" />
	<path id="Layer" class="shp16" d="M116 125.5L323.5 125.5L323.5 290.5L116 290.5L116 125.5Z" />
	<path id="Layer" class="shp16" d="M339 125.5L546.5 125.5L546.5 290.5L339 290.5L339 125.5Z" />
	<path id="Layer" class="shp16" d="M339 351.5L546.5 351.5L546.5 516.5L339 516.5L339 351.5Z" />
	<path id="Layer" class="shp16" d="M570 351.5L777.5 351.5L777.5 516.5L570 516.5L570 351.5Z" />
	<path id="Layer" class="shp0" d="M298.79 160.84C292.04 160.84 286.58 155.38 286.58 148.63C286.58 141.88 292.04 136.42 298.79 136.42C305.54 136.42 311 141.88 311 148.63C311 155.38 305.54 160.84 298.79 160.84Z" />
	<path id="Layer" class="shp17" d="M298.79 158.81C293.16 158.81 288.61 154.26 288.61 148.63C288.61 143 293.16 138.45 298.79 138.45C304.42 138.45 308.97 143 308.97 148.63C308.97 154.26 304.42 158.81 298.79 158.81Z" />
	<path id="Layer" class="shp2" d="M297.84 152.81L294.88 149L296.6 147.66L298.01 149.46L302.75 144.46L304.34 145.96L297.84 152.81L297.84 152.81Z" />
	<path id="Layer" class="shp0" d="M525.79 160.84C519.04 160.84 513.58 155.38 513.58 148.63C513.58 141.88 519.04 136.42 525.79 136.42C532.54 136.42 538 141.88 538 148.63C538 155.38 532.54 160.84 525.79 160.84Z" />
	<path id="Layer" class="shp17" d="M525.79 158.81C520.16 158.81 515.61 154.26 515.61 148.63C515.61 143 520.16 138.45 525.79 138.45C531.42 138.45 535.97 143 535.97 148.63C535.97 154.26 531.42 158.81 525.79 158.81Z" />
	<path id="Layer" class="shp2" d="M524.84 152.81L521.88 149L523.6 147.66L525.01 149.46L529.75 144.46L531.34 145.96L524.84 152.81L524.84 152.81Z" />
	<path id="Layer" class="shp0" d="M525.79 386.84C519.04 386.84 513.58 381.38 513.58 374.63C513.58 367.88 519.04 362.42 525.79 362.42C532.54 362.42 538 367.88 538 374.63C538 381.38 532.54 386.84 525.79 386.84Z" />
	<path id="Layer" class="shp17" d="M525.79 384.81C520.16 384.81 515.61 380.26 515.61 374.63C515.61 369 520.16 364.45 525.79 364.45C531.42 364.45 535.97 369 535.97 374.63C535.97 380.26 531.42 384.81 525.79 384.81Z" />
	<path id="Layer" class="shp2" d="M524.84 378.81L521.88 375L523.6 373.66L525.01 375.46L529.75 370.46L531.34 371.96L524.84 378.81L524.84 378.81Z" />
	<path id="Layer" class="shp0" d="M753.79 386.84C747.04 386.84 741.58 381.38 741.58 374.63C741.58 367.88 747.04 362.42 753.79 362.42C760.54 362.42 766 367.88 766 374.63C766 381.38 760.54 386.84 753.79 386.84Z" />
	<path id="Layer" class="shp17" d="M753.79 384.81C748.16 384.81 743.61 380.26 743.61 374.63C743.61 369 748.16 364.45 753.79 364.45C759.42 364.45 763.97 369 763.97 374.63C763.97 380.26 759.42 384.81 753.79 384.81Z" />
	<path id="Layer" class="shp2" d="M752.84 378.81L749.88 375L751.6 373.66L753.01 375.46L757.75 370.46L759.34 371.96L752.84 378.81L752.84 378.81Z" />
</svg>