<svg id="Camada_1" data-name="Camada 1" xmlns="http://www.w3.org/2000/svg" viewBox="0 0 1508 1041"><path d="M685,699c46.7-6.06,56.08,28,201.37,119,147.88,92.69,219.81,107.31,264.35,114,42.1,6.29,103.82,13.16,151.13-24.35,38.71-30.68,49.46-81.37,54.4-128.09,3.72-35.23,5.21-72.12-10.48-104.24-10.91-22.3-29.36-40.64-42.49-61.88-45.65-73.93-19.7-168.61,23.13-244.54,20-35.61,43.68-69.78,58.73-107.41s20.94-80.29,4.78-117.34c-16-36.72-51.62-63.29-89.72-81.42C1189,9.83,1078.51,13.58,1046,15.5,736.6,33.81,710.5,131.48,552,96,437.53,70.38,393.37,6.5,286,27c-21.67,4.14-99.42,19-137.43,84.82-2.41,4.18-30.48,66.67-15.26,129.44,15,61.85,46.69,69,67.69,127.72,5.53,15.43,13,42,2.86,153.41C188.66,688.78,165.35,701,179.17,765.53c3.56,16.64,26.37,118.19,103.19,152.26,74.39,33,162.86-13.92,196.73-32.95C607.46,812.7,604.94,709.39,685,699Z" style="fill:#e6e6e6"/><g id="AI_Studio" data-name="AI Studio"><g id="Computer"><rect x="385.11" y="951.61" width="1066.6" height="6.69" style="fill:#b3b3b3"/><polygon points="955.31 941.15 701.7 941.15 710.3 829.39 946.71 829.39 955.31 941.15" style="fill:#999"/><rect x="688.81" y="928.26" width="283.69" height="25.79" style="fill:gray"/><path d="M1314.23,109.41H344.94c-14.25,0-25.79,13.48-25.79,30.11V829.39H1340V139.52C1340,122.89,1328.47,109.41,1314.23,109.41Z" style="fill:#123f54"/><rect x="370.73" y="172.13" width="919.86" height="602.08" style="fill:#e6e6e6"/><ellipse cx="830.66" cy="885.27" rx="25.67" ry="25.87" transform="translate(-382.69 846.86) rotate(-45.01)" style="fill:#123f54"/><circle cx="399.41" cy="180.03" r="4.89" style="fill:#fff"/><circle cx="417.99" cy="180.03" r="4.89" style="fill:#fff"/><circle cx="436.56" cy="180.03" r="4.89" style="fill:#fff"/><rect x="394.51" y="196.66" width="869.56" height="559.2" style="fill:#fff"/><path d="M453.21,246.94a4,4,0,0,0-4,4V451.19a4,4,0,0,0,4,4H684.5a4,4,0,0,0,4-4V250.91a4,4,0,0,0-4-4Z" style="fill:#e6e6e6"/><path d="M453.21,501.18a4,4,0,0,0-4,4V705.42a4,4,0,0,0,4,4H684.5a4,4,0,0,0,4-4V505.14a4,4,0,0,0-4-4Z" style="fill:#e6e6e6"/></g><g id="Moto"><path d="M610,580.45l-5.68.43s19.21,49.43,18.88,60.36c-.11,3.61,2.21,2.27,5.36-1.16A147.38,147.38,0,0,0,610,580.45Z" style="fill:none"/><path d="M628.31,636.6A27.33,27.33,0,0,0,601,663.93c0,.33,0,.66,0,1v0c0,.45,0,.89.08,1.34a27.33,27.33,0,1,0,27.23-29.68Z" style="fill:#65617d"/><circle cx="628.31" cy="663.93" r="14.91" style="fill:#dce0ed"/><circle cx="628.31" cy="663.93" r="8.94" style="fill:#65617d"/><path d="M555.93,607.62c-.12-.86-.26-1.78-.41-2.72-.19-1.19-.4-2.4-.6-3.51a4.18,4.18,0,0,0-4-3.4c-4.37-.07-13.27-.78-27.24-4.48a45.53,45.53,0,0,0-17-1.27c-7.31.85-15.31,3.59-15.9,11.4v9.72L556.54,612S556.29,610.1,555.93,607.62Z" style="fill:#65617d"/><path d="M610.35,665.66a19.88,19.88,0,0,0,18.55-21.13c-.1-1.43-.22-2.92-.36-4.45A147.38,147.38,0,0,0,610,580.45h-.05l-5.63.42-8.89.68s.64,1.42,1.6,3.86c3.88,9.82,12.85,36.07,5.41,52.2-.53,1.15-1,2.33-1.41,3.52a14.89,14.89,0,0,1-5.89,6.76,26.17,26.17,0,0,1-14.86,4.55H551.9s-11.71-16.57,3.75-32.91c0,0,7.21-6,2.27-10.6a10.52,10.52,0,0,0-2.71-1.76l-55.43-.45a17.42,17.42,0,0,0-11.54,2.11h0c-4.26,2.6-8.2,8-8.78,18.87-.56,10.53-2,17.29-3.44,21.58a15.45,15.45,0,0,1-6.73,8.23c-1.54.92-3,2.49-2,5a5.39,5.39,0,0,0,5,3.23H609C609.48,665.7,609.91,665.68,610.35,665.66Z" style="fill:#123f54"/><path d="M555.52,604.9H490.73v2.72h65.2C555.81,606.76,555.67,605.84,555.52,604.9Z" style="opacity:0.100000001490116;isolation:isolate"/><path d="M555.21,607.18l-55.43-.45a17.42,17.42,0,0,0-11.54,2.11,1.39,1.39,0,0,0,.53.1h69.15A10.52,10.52,0,0,0,555.21,607.18Z" style="opacity:0.100000001490116;isolation:isolate"/><rect x="463.22" y="605.57" width="96.63" height="2.71" rx="1.36" style="fill:#dce0ed"/><path d="M610,580.45l-5.68.43s19.21,49.43,18.88,60.36c-.11,3.61,2.21,2.27,5.36-1.16A147.38,147.38,0,0,0,610,580.45Z" style="opacity:0.100000001490116;isolation:isolate"/><path d="M655.47,660.94a27.34,27.34,0,0,0-37-22.51c-1.56,17.34-11.28,24-17.46,26.49v0l.08,1.34q6.63-.15,12.45-.41c2.07-.09,4.06-.2,6-.31,6.79-.41,12.66-.93,17.74-1.53q3.18-.37,6-.79c5-.73,9-1.52,12.27-2.3Z" style="opacity:0.100000001490116;isolation:isolate"/><path d="M668.39,655.39S651.2,644.5,641.56,636.6s-25.14-22.1-25.14-22.1c10.8,47.8-20.57,51.2-20.57,51.2C658.13,665,668.39,655.39,668.39,655.39Z" style="fill:#123f54"/><path d="M668.39,655.39S651.2,644.5,641.56,636.6s-25.14-22.1-25.14-22.1c10.8,47.8-20.57,51.2-20.57,51.2C658.13,665,668.39,655.39,668.39,655.39Z" style="fill:#fff;opacity:0.100000001490116;isolation:isolate"/><circle cx="512.04" cy="663.93" r="27.33" style="fill:#65617d"/><circle cx="512.04" cy="663.93" r="14.91" style="fill:#dce0ed"/><circle cx="512.04" cy="663.93" r="8.94" style="fill:#65617d"/><path d="M542.6,657.94H480.15c0-.73-.08-1.47-.08-2.22q0-.65,0-1.29a31.31,31.31,0,1,1,62.61,1.29C542.68,656.47,542.65,657.21,542.6,657.94Z" style="opacity:0.100000001490116;isolation:isolate"/><path d="M541.45,657.31H481.3c-.05-.71-.07-1.42-.07-2.14,0-.41,0-.82,0-1.24a30.15,30.15,0,0,1,60.29,1.24C541.52,655.89,541.49,656.6,541.45,657.31Z" style="fill:#123f54"/><path d="M541.52,655.17q0-.61,0-1.23a30.15,30.15,0,1,0-60.29,1.23c0,.5,0,1,0,1.47l0,.67h60.15l0-.67c0-.48,0-1,0-1.47Z" style="fill:#fff;opacity:0.100000001490116;isolation:isolate"/><path d="M481.27,656.64l0,.67h60.15l0-.67Z" style="opacity:0.100000001490116;isolation:isolate"/><rect x="468.04" y="657.97" width="80.99" height="7.07" rx="3.53" style="opacity:0.100000001490116;isolation:isolate"/><rect x="468.04" y="657.31" width="80.99" height="7.07" rx="3.53" style="fill:#dce0ed"/><ellipse cx="619.03" cy="602.1" rx="3.97" ry="9.99" transform="translate(-193.1 308.55) rotate(-24.33)" style="opacity:0.100000001490116;isolation:isolate"/><ellipse cx="619.36" cy="601.77" rx="3.97" ry="9.99" transform="translate(-192.93 308.66) rotate(-24.33)" style="fill:#dce0ed"/><path d="M604.3,580.88l-8.89.68s.64,1.42,1.6,3.86a17.66,17.66,0,0,0,2.81.23h10.11v-5.19Z" style="opacity:0.100000001490116;isolation:isolate"/><path d="M609.93,554.87,599.82,554c-8.87,0-16.06,6.64-16.06,14.83v1.38c0,8.18,7.19,14.82,16.06,14.82h10.11Z" style="fill:#123f54"/><path d="M582.43,562.73l2.44,15c6.71.66,11-6.33,11-6.33,3.48-5.47-2.57-8.7-2.57-8.7C590.46,562,582.43,562.73,582.43,562.73Z" style="fill:#123f54"/><path d="M582.43,562.73l2.44,15c6.71.66,11-6.33,11-6.33a5.3,5.3,0,0,0,0-6.4,6.42,6.42,0,0,0-4.91-2.59A73.61,73.61,0,0,0,582.43,562.73Z" style="opacity:0.100000001490116;isolation:isolate"/><path d="M609.6,585V554.87h0a8.11,8.11,0,0,1,8.11,8.11v13.89h0A8.11,8.11,0,0,1,609.6,585Z" style="opacity:0.100000001490116;isolation:isolate"/><path d="M609.93,585V554.87h0A8.11,8.11,0,0,1,618,563v13.89h0a8.11,8.11,0,0,1-8.11,8.11Z" style="fill:#dce0ed"/><ellipse cx="581.73" cy="570.55" rx="6.71" ry="8.17" style="fill:#123f54"/><polygon points="480.63 559.92 470.88 569.94 506.34 570.56 517.13 559.92 480.63 559.92" style="fill:#dda2a6"/><polygon points="506.34 606.18 506.34 570.56 517.13 559.92 517.13 596.32 506.34 606.18" style="fill:#b77b7f"/><polygon points="506.34 570.56 506.34 606.18 470.88 606.18 470.88 569.94 506.34 570.56" style="fill:#dda2a6"/><polygon points="506.34 570.56 506.34 606.18 470.88 606.18 470.88 569.94 506.34 570.56" style="fill:#fff;opacity:0.300000011920929;isolation:isolate"/><polygon points="500.8 598.32 473.65 593.33 477.08 576.01 503.46 580.54 500.8 598.32" style="fill:#dce0ed"/><polygon points="497.81 587.12 480.07 584.11 480.52 581.8 498.25 584.58 497.81 587.12" style="fill:#123f54"/><polygon points="493.38 592.11 482.85 590.63 483.29 588.06 493.38 589.53 493.38 592.11" style="fill:#123f54"/><polygon points="510 581.8 509.52 567.43 512.29 564.7 512.77 579.02 510 581.8" style="fill:#65617d"/><polygon points="474.8 565.91 508.56 566.87 509.52 567.43 512.29 564.7 511.14 564.05 477.06 563.59 474.8 565.91" style="fill:#65617d"/></g><g id="Carro"><rect x="463.16" y="383.2" width="24.94" height="3.96" style="fill:#3f3d56"/><path d="M668.39,384.08l-5.15,1.2-195.53.1-1.76-4.1a41.31,41.31,0,0,1-3-22.36c.84-5.65,2.95-11.28,7.75-13.72l8.67-57.79,108.18-.2L629.37,321s19.74-.35,30.47,13a31.37,31.37,0,0,1,6.55,17.26l.43,6.95Z" style="fill:#123f54"/><circle cx="625.44" cy="383.12" r="24.14" style="fill:#3f3d56"/><circle cx="625.44" cy="383.12" r="12.71" style="fill:#ccc"/><circle cx="506.3" cy="383.18" r="24.14" style="fill:#3f3d56"/><circle cx="506.3" cy="383.18" r="12.71" style="fill:#ccc"/><polygon points="612.74 317.03 554.33 317.05 547.2 317.05 535.16 317.06 535.16 316.18 535.15 305.6 535.14 293.71 543.15 293.71 550.28 293.7 562.91 293.69 570.04 293.69 584.62 293.69 612.74 317.03" style="fill:#fff"/><polygon points="525.66 317.07 494.79 317.09 494.78 311.03 494.78 300.44 494.77 293.74 499.29 293.74 506.42 293.73 525.65 293.72 525.66 317.07" style="fill:#fff"/><rect x="535.17" y="334.48" width="3.96" height="7.52" style="fill:#3f3d56"/><rect x="596.91" y="323.76" width="7.52" height="3.96" style="fill:#3f3d56"/><path d="M599.68,309h.43a8.28,8.28,0,0,1,8.28,8.28h0a8.28,8.28,0,0,1-8.28,8.27h-.43V309Z" style="fill:#3f3d56"/><path d="M666.82,358.18a12.79,12.79,0,0,1-7-24.21,31.37,31.37,0,0,1,6.55,17.26Z" style="fill:#3f3d56"/><polygon points="550.28 293.7 535.16 316.18 535.15 305.6 543.15 293.71 550.28 293.7" style="fill:#f2f2f2"/><polygon points="506.42 293.73 494.78 311.03 494.78 300.44 499.29 293.74 506.42 293.73" style="fill:#f2f2f2"/><polygon points="570.04 293.69 554.33 317.05 547.2 317.05 562.91 293.69 570.04 293.69" style="fill:#f2f2f2"/></g><path d="M705.21,246.94a4,4,0,0,0-4,4V451.19a4,4,0,0,0,4,4H936.5a4,4,0,0,0,4-4V250.91a4,4,0,0,0-4-4Z" style="fill:#e6e6e6"/><g id="Carro-2" data-name="Carro"><rect x="715.16" y="383.2" width="24.94" height="3.96" style="fill:#3f3d56"/><path d="M920.39,384.08l-5.14,1.2-195.54.1-1.76-4.1a41.49,41.49,0,0,1-3-22.36c.85-5.65,3-11.28,7.75-13.72l8.68-57.79,108.18-.2L881.37,321s19.74-.35,30.47,13a31.38,31.38,0,0,1,6.56,17.26l.42,6.95Z" style="fill:#123f54"/><circle cx="877.45" cy="383.12" r="24.14" style="fill:#3f3d56"/><circle cx="877.45" cy="383.12" r="12.71" style="fill:#ccc"/><circle cx="758.3" cy="383.18" r="24.14" style="fill:#3f3d56"/><circle cx="758.3" cy="383.18" r="12.71" style="fill:#ccc"/><polygon points="864.74 317.03 806.33 317.05 799.2 317.05 787.16 317.06 787.16 316.18 787.16 305.6 787.15 293.71 795.16 293.71 802.29 293.7 814.92 293.69 822.05 293.69 836.63 293.69 864.74 317.03" style="fill:#fff"/><polygon points="777.66 317.07 746.79 317.09 746.78 311.03 746.78 300.44 746.78 293.74 751.3 293.74 758.43 293.73 777.65 293.72 777.66 317.07" style="fill:#fff"/><rect x="787.17" y="334.48" width="3.96" height="7.52" style="fill:#3f3d56"/><rect x="848.92" y="323.76" width="7.52" height="3.96" style="fill:#3f3d56"/><path d="M851.68,309h.44a8.28,8.28,0,0,1,8.27,8.28h0a8.27,8.27,0,0,1-8.27,8.27h-.44V309Z" style="fill:#3f3d56"/><path d="M918.82,358.18a12.79,12.79,0,0,1-7-24.21,31.38,31.38,0,0,1,6.56,17.26Z" style="fill:#3f3d56"/><polygon points="802.29 293.7 787.16 316.18 787.16 305.6 795.16 293.71 802.29 293.7" style="fill:#f2f2f2"/><polygon points="758.43 293.73 746.78 311.03 746.78 300.44 751.3 293.74 758.43 293.73" style="fill:#f2f2f2"/><polygon points="822.05 293.69 806.33 317.05 799.2 317.05 814.92 293.69 822.05 293.69" style="fill:#f2f2f2"/></g><path d="M959.44,246.94a4,4,0,0,0-4,4V451.19a4,4,0,0,0,4,4h231.29a4,4,0,0,0,4-4V250.91a4,4,0,0,0-4-4Z" style="fill:#e6e6e6"/><path d="M707.44,499a4,4,0,0,0-4,4V703.19a4,4,0,0,0,4,4H938.73a4,4,0,0,0,4-4V502.91a4,4,0,0,0-4-4Z" style="fill:#e6e6e6"/><g id="Carro-3" data-name="Carro"><rect x="717.39" y="635.2" width="24.94" height="3.96" style="fill:#3f3d56"/><path d="M922.62,636.09l-5.14,1.19-195.54.1-1.76-4.09a41.51,41.51,0,0,1-3-22.36c.85-5.66,3-11.28,7.75-13.72l8.68-57.8,108.18-.19L883.6,573s19.74-.36,30.47,13a31.41,31.41,0,0,1,6.56,17.27l.42,6.94Z" style="fill:#123f54"/><circle cx="879.68" cy="635.12" r="24.14" style="fill:#3f3d56"/><circle cx="879.68" cy="635.12" r="12.71" style="fill:#ccc"/><circle cx="760.53" cy="635.19" r="24.14" style="fill:#3f3d56"/><circle cx="760.53" cy="635.19" r="12.71" style="fill:#ccc"/><polygon points="866.97 569.03 808.56 569.05 801.43 569.05 789.39 569.06 789.39 568.18 789.39 557.6 789.38 545.71 797.39 545.71 804.52 545.71 817.15 545.7 824.28 545.7 838.86 545.69 866.97 569.03" style="fill:#fff"/><polygon points="779.89 569.07 749.02 569.09 749.01 563.03 749.01 552.45 749.01 545.74 753.53 545.74 760.66 545.73 779.88 545.72 779.89 569.07" style="fill:#fff"/><rect x="789.4" y="586.48" width="3.96" height="7.52" style="fill:#3f3d56"/><rect x="851.15" y="575.76" width="7.52" height="3.96" style="fill:#3f3d56"/><path d="M853.91,561h.44a8.27,8.27,0,0,1,8.27,8.27h0a8.27,8.27,0,0,1-8.27,8.27h-.44V561Z" style="fill:#3f3d56"/><path d="M921.05,610.18a12.79,12.79,0,0,1-7-24.21,31.41,31.41,0,0,1,6.56,17.27Z" style="fill:#3f3d56"/><polygon points="804.52 545.71 789.39 568.18 789.39 557.6 797.39 545.71 804.52 545.71" style="fill:#f2f2f2"/><polygon points="760.66 545.73 749.01 563.03 749.01 552.45 753.53 545.74 760.66 545.73" style="fill:#f2f2f2"/><polygon points="824.28 545.7 808.56 569.05 801.43 569.05 817.15 545.7 824.28 545.7" style="fill:#f2f2f2"/></g><path d="M961.67,499a4,4,0,0,0-4,4V703.19a4,4,0,0,0,4,4H1193a4,4,0,0,0,4-4V502.91a4,4,0,0,0-4-4Z" style="fill:#e6e6e6"/><g id="Carro-4" data-name="Carro"><rect x="971.62" y="635.2" width="24.94" height="3.96" style="fill:#3f3d56"/><path d="M1176.86,636.09l-5.15,1.19-195.53.1-1.76-4.09a41.32,41.32,0,0,1-3-22.36c.84-5.66,3-11.28,7.74-13.72l8.68-57.8,108.18-.19L1137.83,573s19.75-.36,30.47,13a31.34,31.34,0,0,1,6.56,17.27l.42,6.94Z" style="fill:#123f54"/><circle cx="1133.91" cy="635.12" r="24.14" style="fill:#3f3d56"/><circle cx="1133.91" cy="635.12" r="12.71" style="fill:#ccc"/><circle cx="1014.77" cy="635.19" r="24.14" style="fill:#3f3d56"/><circle cx="1014.77" cy="635.19" r="12.71" style="fill:#ccc"/><polygon points="1121.2 569.03 1062.8 569.05 1055.67 569.05 1043.63 569.06 1043.63 568.18 1043.62 557.6 1043.61 545.71 1051.62 545.71 1058.75 545.71 1071.38 545.7 1078.51 545.7 1093.09 545.69 1121.2 569.03" style="fill:#fff"/><polygon points="1034.13 569.07 1003.26 569.09 1003.25 563.03 1003.25 552.45 1003.24 545.74 1007.76 545.74 1014.89 545.73 1034.12 545.72 1034.13 569.07" style="fill:#fff"/><rect x="1043.64" y="586.48" width="3.96" height="7.52" style="fill:#3f3d56"/><rect x="1105.38" y="575.76" width="7.52" height="3.96" style="fill:#3f3d56"/><path d="M1108.15,561h.43a8.27,8.27,0,0,1,8.27,8.27h0a8.27,8.27,0,0,1-8.27,8.27h-.43V561Z" style="fill:#3f3d56"/><path d="M1175.28,610.18a12.79,12.79,0,0,1-7-24.21,31.34,31.34,0,0,1,6.56,17.27Z" style="fill:#3f3d56"/><polygon points="1058.75 545.71 1043.63 568.18 1043.62 557.6 1051.62 545.71 1058.75 545.71" style="fill:#f2f2f2"/><polygon points="1014.89 545.73 1003.25 563.03 1003.25 552.45 1007.76 545.74 1014.89 545.73" style="fill:#f2f2f2"/><polygon points="1078.51 545.7 1062.8 569.05 1055.67 569.05 1071.38 545.7 1078.51 545.7" style="fill:#f2f2f2"/></g></g><rect x="1044.88" y="272.05" width="2.96" height="28.79" style="fill:#123f54"/><rect x="1004.87" y="299.15" width="84.26" height="43.19" style="fill:#fff;stroke:#123f54;stroke-miterlimit:10"/><g style="opacity:0.5"><rect x="1010.38" y="307.83" width="17.78" height="14.18" style="fill:#123f54"/><rect x="1039.8" y="307.83" width="17.78" height="14.18" style="fill:#123f54"/><rect x="1069.23" y="307.83" width="17.78" height="14.18" style="fill:#123f54"/></g><path d="M1141.21,330.69a84,84,0,0,1-84,84.05h-101V330.69Z" style="fill:#fff;stroke:#123f54;stroke-miterlimit:10"/><path d="M1141.21,330.69a83.93,83.93,0,0,1-1.66,16.73H956.18V330.69Z" style="fill:#123f54"/><path d="M1122.29,383.83a84.58,84.58,0,0,1-18.39,16.73H956.18V383.83Z" style="fill:#123f54"/><g style="opacity:0.5"><rect x="963.16" y="356.73" width="17.78" height="14.18" style="fill:#123f54"/><rect x="992.59" y="356.73" width="17.78" height="14.18" style="fill:#123f54"/><rect x="1022.02" y="356.73" width="17.78" height="14.18" style="fill:#123f54"/></g><g style="opacity:0.5"><rect x="1050.81" y="356.73" width="17.78" height="14.18" style="fill:#123f54"/><rect x="1080.24" y="356.73" width="17.78" height="14.18" style="fill:#123f54"/><rect x="1109.67" y="356.73" width="17.78" height="14.18" style="fill:#123f54"/></g><path d="M956.65,413.08h153.09a1,1,0,0,1,1,1.05v.15a1.05,1.05,0,0,1-1,1.06H956.65a1.05,1.05,0,0,1-1-1.06v-.15A1,1,0,0,1,956.65,413.08Z" style="fill:#123f54"/><path d="M957.72,417.38h52.34a1,1,0,0,1,1,1.06v.15a1,1,0,0,1-1,1.06H957.72a1,1,0,0,1-1-1.06v-.15A1,1,0,0,1,957.72,417.38Z" style="fill:#123f54"/><rect x="997.44" y="422.6" width="58.71" height="2.27" rx="1.06" style="fill:#123f54"/><rect x="1046.4" y="427.81" width="58.71" height="2.27" rx="1.06" style="fill:#123f54"/><rect x="1116.9" y="413.08" width="10.43" height="2.27" rx="1.06" style="fill:#123f54"/><rect x="1057.28" y="417.38" width="10.43" height="2.27" rx="1.06" style="fill:#123f54"/><rect x="967.29" y="422.6" width="10.43" height="2.27" rx="1.06" style="fill:#123f54"/><rect x="1067.93" y="422.6" width="10.43" height="2.27" rx="1.06" style="fill:#123f54"/><rect x="960.71" y="427.81" width="58.71" height="2.27" rx="1.06" style="fill:#123f54"/><path d="M1047.85,272.05s28.16,1.06,32.39,0c0,0-2.75,5.29,0,8.47s-2.12,5.93-2.12,5.93h-31.75Z" style="fill:#123f54"/><rect x="461.11" y="259.72" width="230.04" height="182.92" style="fill:none;stroke:#006837;stroke-miterlimit:10;stroke-width:4px"/><rect x="708.33" y="259.72" width="230.04" height="182.92" style="fill:none;stroke:#006837;stroke-miterlimit:10;stroke-width:4px"/><rect x="708.33" y="510.27" width="230.04" height="182.92" style="fill:none;stroke:#006837;stroke-miterlimit:10;stroke-width:4px"/><rect x="964.43" y="510.27" width="230.04" height="182.92" style="fill:none;stroke:#006837;stroke-miterlimit:10;stroke-width:4px"/><circle cx="663.75" cy="285.36" r="13.54" style="fill:#e6e6e6"/><circle cx="663.75" cy="285.36" r="11.28" style="fill:#006837"/><polygon points="662.71 290 659.42 285.77 661.33 284.29 662.89 286.29 668.15 280.74 669.9 282.4 662.71 290" style="fill:#fff"/><circle cx="915.41" cy="285.36" r="13.54" style="fill:#e6e6e6"/><circle cx="915.41" cy="285.36" r="11.28" style="fill:#006837"/><polygon points="914.37 290 911.08 285.77 912.99 284.29 914.55 286.29 919.8 280.74 921.56 282.4 914.37 290" style="fill:#fff"/><circle cx="915.41" cy="535.91" r="13.54" style="fill:#e6e6e6"/><circle cx="915.41" cy="535.91" r="11.28" style="fill:#006837"/><polygon points="914.37 540.55 911.08 536.32 912.99 534.84 914.55 536.84 919.8 531.29 921.56 532.95 914.37 540.55" style="fill:#fff"/><circle cx="1168.18" cy="535.91" r="13.54" style="fill:#e6e6e6"/><circle cx="1168.18" cy="535.91" r="11.28" style="fill:#006837"/><polygon points="1167.13 540.55 1163.85 536.32 1165.76 534.84 1167.31 536.84 1172.57 531.29 1174.33 532.95 1167.13 540.55" style="fill:#fff"/></svg>