<svg xmlns="http://www.w3.org/2000/svg" viewBox="0 0 618 718" width="618" height="718">
	<defs>
		<linearGradient id="grd1" gradientUnits="userSpaceOnUse"  x1="373.035" y1="523.703" x2="168.144" y2="74.526">
			<stop offset="0" stop-color="#808080" stop-opacity="0.25" />
			<stop offset="0.54" stop-color="#808080" stop-opacity="0.12" />
			<stop offset="1" stop-color="#808080" stop-opacity="0.1" />
		</linearGradient>
		<linearGradient id="grd2" gradientUnits="userSpaceOnUse"  x1="52648.608" y1="-228201.389" x2="52648.608" y2="-223607.558">
			<stop offset="0" stop-color="#808080" stop-opacity="0.25" />
			<stop offset="0.54" stop-color="#808080" stop-opacity="0.12" />
			<stop offset="1" stop-color="#808080" stop-opacity="0.1" />
		</linearGradient>
		<linearGradient id="grd3" gradientUnits="userSpaceOnUse"  x1="14740.27" y1="-100735.149" x2="14740.27" y2="-98299.706">
			<stop offset="0" stop-color="#808080" stop-opacity="0.25" />
			<stop offset="0.54" stop-color="#808080" stop-opacity="0.12" />
			<stop offset="1" stop-color="#808080" stop-opacity="0.1" />
		</linearGradient>
		<linearGradient id="grd4" gradientUnits="userSpaceOnUse"  x1="17860.554" y1="-217412.098" x2="17860.554" y2="-210047.126">
			<stop offset="0" stop-color="#808080" stop-opacity="0.25" />
			<stop offset="0.54" stop-color="#808080" stop-opacity="0.12" />
			<stop offset="1" stop-color="#808080" stop-opacity="0.1" />
		</linearGradient>
		<linearGradient id="grd5" gradientUnits="userSpaceOnUse"  x1="17946.793" y1="-231872.387" x2="17946.793" y2="-224507.415">
			<stop offset="0" stop-color="#808080" stop-opacity="0.25" />
			<stop offset="0.54" stop-color="#808080" stop-opacity="0.12" />
			<stop offset="1" stop-color="#808080" stop-opacity="0.1" />
		</linearGradient>
		<linearGradient id="grd6" gradientUnits="userSpaceOnUse"  x1="6085.822" y1="-88589.535" x2="6085.822" y2="-87101.013">
			<stop offset="0" stop-color="#808080" stop-opacity="0.25" />
			<stop offset="0.54" stop-color="#808080" stop-opacity="0.12" />
			<stop offset="1" stop-color="#808080" stop-opacity="0.1" />
		</linearGradient>
		<linearGradient id="grd7" gradientUnits="userSpaceOnUse"  x1="640888.596" y1="-947597.697" x2="640888.596" y2="-822960.852">
			<stop offset="0" stop-color="#808080" stop-opacity="0.25" />
			<stop offset="0.54" stop-color="#808080" stop-opacity="0.12" />
			<stop offset="1" stop-color="#808080" stop-opacity="0.1" />
		</linearGradient>
	</defs>
	<style>
		tspan { white-space:pre }
		.shp0 { fill: url(#grd1) } 
		.shp1 { fill: #ffffff;stroke: #123f54;stroke-width: 0.5 } 
		.shp2 { fill: url(#grd2) } 
		.shp3 { fill: url(#grd3) } 
		.shp4 { fill: #123f54 } 
		.shp5 { fill: url(#grd4) } 
		.shp6 { fill: url(#grd5) } 
		.shp7 { fill: #006837 } 
		.shp8 { fill: #e0e0e0 } 
		.shp9 { fill: url(#grd6) } 
		.shp10 { fill: #ffffff } 
		.shp11 { fill: #3f3d56 } 
		.shp12 { fill: #cccccc } 
		.shp13 { fill: #f2f2f2 } 
		.shp14 { fill: url(#grd7) } 
		.shp15 { fill: #be7c5e } 
		.shp16 { fill: #fda57d } 
	</style>
	<g id="Contratando">
		<g id="Layer" style="opacity: 0.502">
			<path id="Layer" class="shp0" d="M5.6 148.67L330.69 0.38L535.58 449.56L210.49 597.85L5.6 148.67Z" />
		</g>
		<path id="Layer" class="shp1" d="M11.23 150.1L328.05 5.59L528.41 444.84L211.6 589.35L11.23 150.1Z" />
		<path id="Layer" class="shp2" d="M86.19 101.89L243.36 30.2L260.73 68.28L103.56 139.97L86.19 101.89Z" />
		<path id="Layer" fill-rule="evenodd" class="shp3" d="M180.02 41.31C185.69 53.73 180.45 68.31 168.32 73.83C156.19 79.35 141.76 73.77 136.09 61.35C130.42 48.93 135.66 34.37 147.79 28.84C159.92 23.3 174.35 28.89 180.02 41.31ZM164 64.32C165.68 63.53 167.18 62.42 168.42 61.05C169.67 59.68 170.63 58.07 171.26 56.33C171.89 54.59 172.16 52.74 172.08 50.89C171.99 49.04 171.54 47.23 170.75 45.55C170.7 45.44 170.61 45.34 170.61 45.24C168.09 40.05 162.69 36.88 156.93 37.23C151.17 37.57 146.18 41.34 144.29 46.8C142.4 52.25 143.98 58.31 148.29 62.14C152.61 65.97 158.81 66.83 164 64.31L164 64.32Z" />
		<path id="Layer" class="shp4" d="M87.84 101.16L241.7 30.98L258.3 67.38L104.44 137.56L87.84 101.16Z" />
		<path id="Layer" fill-rule="evenodd" class="shp4" d="M157.53 28.38C160.63 28.27 163.73 28.77 166.63 29.86C169.54 30.95 172.21 32.59 174.48 34.71C176.75 36.83 178.58 39.37 179.87 42.2C183.84 50.9 182.17 61.13 175.65 68.13C169.13 75.12 159.04 77.5 150.09 74.15C141.13 70.81 135.07 62.4 134.74 52.84C134.4 43.29 139.85 34.47 148.55 30.5C151.37 29.21 154.43 28.49 157.53 28.38ZM164 64.41C165.63 63.67 167.1 62.61 168.32 61.3C169.54 59.99 170.49 58.45 171.12 56.77C171.75 55.1 172.04 53.31 171.97 51.52C171.91 49.73 171.49 47.97 170.75 46.34C168.46 41.32 163.37 38.17 157.86 38.37C152.35 38.56 147.49 42.06 145.56 47.23C143.63 52.39 145 58.22 149.04 61.98C153.08 65.74 158.98 66.7 164 64.41Z" />
		<path id="Layer" class="shp5" d="M58.58 214.44L126.42 183.5L157.36 251.33L89.52 282.28L58.58 214.44Z" />
		<path id="Layer" class="shp6" d="M120.12 348.77L187.96 317.82L218.9 385.66L151.07 416.6L120.12 348.77Z" />
		<path id="Layer" class="shp7" d="M62.19 215.79L125.06 187.12L153.73 249.99L90.86 278.66L62.19 215.79Z" />
		<path id="Layer" class="shp4" d="M122.94 348.97L185.81 320.3L214.49 383.16L151.62 411.84L122.94 348.97Z" />
		<path id="Layer" class="shp8" d="M175.27 187.66L261.44 148.35L264.18 154.37L178.01 193.67L175.27 187.66Z" />
		<path id="Layer" class="shp8" d="M179.39 196.68L321.68 131.78L324.42 137.79L182.13 202.7L179.39 196.68Z" />
		<path id="Layer" class="shp8" d="M183.5 205.7L315.76 145.37L318.5 151.39L186.24 211.72L183.5 205.7Z" />
		<path id="Layer" class="shp8" d="M236.01 320.85L322.18 281.54L324.93 287.55L238.76 326.86L236.01 320.85Z" />
		<path id="Layer" class="shp8" d="M240.14 329.86L382.43 264.96L385.17 270.97L242.89 335.87L240.14 329.86Z" />
		<path id="Layer" class="shp8" d="M244.24 338.88L376.5 278.55L379.25 284.56L246.99 344.89L244.24 338.88Z" />
		<path id="Layer" class="shp9" d="M91.98 235.65L108.17 240.91L113.5 209.75L121.38 211.9L112.52 250.42L88.1 239.72L91.98 235.65L91.98 235.65Z" />
		<path id="Layer" class="shp10" d="M94.05 235.24L108.12 239.8L112.75 212.71L119.6 214.59L111.89 248.08L90.67 238.78L94.05 235.24L94.05 235.24Z" />
		<path id="Layer" class="shp10" d="M155.18 369.25L169.25 373.81L173.88 346.72L180.73 348.59L173.02 382.09L151.79 372.79L155.18 369.25L155.18 369.25Z" />
		<path id="Layer" class="shp8" d="M224.41 464.08L425.42 372.39L455.99 439.39L254.97 531.08L224.41 464.08Z" />
		<path id="Layer" fill-rule="evenodd" class="shp4" d="M394.45 430.54C391.61 429.73 387.41 428.42 384.86 430.65C383.45 431.86 383.04 433.92 382.61 435.65C381.78 439.01 381.17 442.58 378.47 445.01C375.19 447.95 370.57 447.9 366.57 446.71C362.11 445.41 358.26 441.8 353.57 441.22C342.07 439.79 341.87 455.25 339.73 462.53C337.24 470.92 326.44 470.43 319.51 468.86L319.17 468.77C318.79 469.03 318.41 469.29 318.02 469.53C317.63 469.78 317.24 470.01 316.84 470.24C316.43 470.46 316.03 470.67 315.61 470.88C315.2 471.08 314.78 471.27 314.36 471.45C312.41 472.28 310.17 473 308.17 474L308.81 474.58C313.73 479.37 313.31 491.35 304.25 490.58C297.82 490.02 295.18 481.9 297.82 476.77C297.91 476.6 298 476.44 298.1 476.28C298.19 476.12 298.29 475.96 298.39 475.8C298.49 475.64 298.6 475.49 298.71 475.33C298.81 475.18 298.93 475.03 299.04 474.88L298.65 474.74C293.97 473.19 289.03 472.58 284.56 475.02C281.7 476.59 279.62 471.97 282.47 470.41C288.35 467.2 296.94 467.79 303.47 470.94C303.71 470.79 303.94 470.64 304.18 470.5C304.42 470.36 304.67 470.22 304.91 470.08C305.15 469.94 305.4 469.81 305.65 469.68C305.9 469.55 306.15 469.43 306.4 469.31C308.56 468.26 311 467.46 313.29 466.46C308.63 463.81 305 459.49 304.36 453.91C303.61 447.35 308.33 440.87 315.05 440.17C322.56 439.34 326.85 446.56 327.05 453.17C327.1 454.17 327.06 455.16 326.94 456.15C326.82 457.14 326.62 458.12 326.33 459.08C326.05 460.03 325.68 460.96 325.24 461.85C324.8 462.75 324.28 463.6 323.7 464.41C323.87 464.43 324.03 464.45 324.2 464.47C324.36 464.48 324.53 464.5 324.7 464.51C324.86 464.52 325.03 464.53 325.2 464.54C325.37 464.55 325.53 464.56 325.7 464.56C328.7 464.72 333.24 464.98 334.7 461.72C335.46 459.98 335.5 457.79 335.83 455.98C336.64 451.84 337.6 447.64 339.83 443.98C344.23 436.77 352.03 434.44 359.63 437.87C363.71 439.71 369.37 444.23 374.07 441.97C377.27 440.43 377.36 435.84 378.19 432.84C380.65 424 388.56 423.58 396.29 425.79C399.43 426.68 397.63 431.42 394.45 430.54ZM306.34 484.79C309.19 481.96 306.71 479.21 303.71 477.21C303.65 477.27 303.59 477.34 303.53 477.4C303.48 477.47 303.42 477.53 303.36 477.6C303.31 477.67 303.25 477.74 303.2 477.8C303.15 477.87 303.09 477.94 303.04 478.01C302.72 478.38 302.45 478.8 302.25 479.25C302.05 479.7 301.92 480.17 301.86 480.66C301.8 481.15 301.81 481.64 301.89 482.13C301.98 482.61 302.13 483.08 302.35 483.52C303.2 485.11 304.82 486.3 306.35 484.79L306.34 484.79ZM311.7 447.12C307.54 450.98 309.64 457.16 313.35 460.51C313.72 460.82 314.1 461.12 314.49 461.4C314.88 461.68 315.29 461.94 315.71 462.17C316.13 462.41 316.56 462.63 317 462.83C317.44 463.02 317.89 463.2 318.35 463.35C318.45 463.25 318.56 463.15 318.66 463.04C318.76 462.94 318.86 462.83 318.95 462.72C319.05 462.62 319.14 462.51 319.23 462.39C319.32 462.28 319.41 462.17 319.5 462.05C322.08 458.52 322.95 452.87 321.08 448.87C319.21 444.87 314.84 444.23 311.7 447.14L311.7 447.12Z" />
	</g>
	<g id="Carro">
		<path id="Layer" class="shp11" d="M234.49 358.72L256.73 348.38L258.37 351.91L236.13 362.25L234.49 358.72Z" />
		<path id="Layer" class="shp4" d="M417.84 274.44L413.75 277.63L239.45 358.8L236.18 355.87C234.78 354.63 233.46 353.29 232.24 351.87C231.02 350.45 229.9 348.94 228.88 347.37C227.87 345.79 226.97 344.15 226.18 342.45C225.39 340.75 224.73 338.99 224.18 337.2C222.59 331.8 222.18 325.92 225.4 321.75L209.2 266.62L305.57 221.62L356.88 234.37C356.88 234.37 374.34 225.86 389.44 233.32C390.81 234.02 392.12 234.82 393.37 235.72C394.62 236.62 395.79 237.61 396.9 238.68C398 239.75 399.01 240.91 399.94 242.13C400.87 243.36 401.7 244.65 402.44 246L405.7 252L417.84 274.44Z" />
		<path id="Layer" class="shp11" d="M389.16 312.88C377.26 318.42 363.16 313.27 357.63 301.36C352.09 289.46 357.24 275.36 369.14 269.83C381.05 264.29 395.14 269.44 400.68 281.34C406.22 293.25 401.07 307.34 389.16 312.88Z" />
		<path id="Layer" class="shp12" d="M379.15 303.88C372.24 303.88 366.65 298.29 366.65 291.38C366.65 284.47 372.24 278.88 379.15 278.88C386.06 278.88 391.65 284.47 391.65 291.38C391.65 298.29 386.06 303.88 379.15 303.88Z" />
		<path id="Layer" class="shp11" d="M272.95 364.58C259.82 364.58 249.21 353.97 249.21 340.84C249.21 327.71 259.82 317.1 272.95 317.1C286.08 317.1 296.69 327.71 296.69 340.84C296.69 353.97 286.08 364.58 272.95 364.58Z" />
		<path id="Layer" class="shp12" d="M272.95 353.34C266.04 353.34 260.45 347.75 260.45 340.84C260.45 333.93 266.04 328.34 272.95 328.34C279.86 328.34 285.45 333.93 285.45 340.84C285.45 347.75 279.86 353.34 272.95 353.34Z" />
		<path id="Layer" class="shp10" d="M340.42 237.72L288.35 261.96L282 264.92L271.27 269.92L270.9 269.13L266.51 259.7L261.57 249.1L268.71 245.78L275.07 242.82L286.32 237.58L292.68 234.62L305.68 228.57L340.42 237.72L340.42 237.72Z" />
		<path id="Layer" class="shp10" d="M262.8 273.86L235.28 286.68L232.76 281.28L228.37 271.84L225.59 265.87L229.62 263.99L235.97 261.03L253.11 253.05L262.8 273.86L262.8 273.86Z" />
		<path id="Layer" class="shp11" d="M278.5 285.42L282.03 283.78L285.14 290.48L281.61 292.12L278.5 285.42Z" />
		<path id="Layer" class="shp11" d="M329.1 250.28L335.8 247.16L337.45 250.69L330.75 253.81L329.1 250.28Z" />
		<path id="Layer" class="shp11" d="M325.43 235.94L325.82 235.76C326.79 235.31 327.83 235.05 328.9 235.01C329.97 234.96 331.03 235.12 332.04 235.49C333.04 235.86 333.96 236.42 334.75 237.14C335.53 237.86 336.17 238.73 336.62 239.7L336.62 239.7C337.07 240.67 337.33 241.72 337.37 242.78C337.42 243.85 337.26 244.92 336.89 245.92C336.53 246.93 335.96 247.85 335.24 248.64C334.52 249.42 333.65 250.06 332.68 250.51L332.29 250.69L332.29 250.69L325.43 235.94L325.43 235.94Z" />
		<path id="Layer" class="shp11" d="M405.7 252C403.17 253.54 400.17 254.13 397.24 253.67C394.32 253.21 391.65 251.74 389.7 249.5C387.76 247.27 386.66 244.42 386.62 241.45C386.57 238.49 387.57 235.61 389.44 233.31C390.81 234.01 392.12 234.81 393.37 235.71C394.62 236.61 395.79 237.6 396.9 238.67C398 239.74 399.01 240.9 399.94 242.12C400.87 243.35 401.7 244.64 402.44 245.99L405.7 252Z" />
		<path id="Layer" class="shp13" d="M275.07 242.82L270.9 269.13L266.51 259.7L268.71 245.78L275.07 242.82L275.07 242.82Z" />
		<path id="Layer" class="shp13" d="M235.97 261.03L232.76 281.28L228.37 271.84L229.62 263.99L235.97 261.03L235.97 261.03Z" />
		<path id="Layer" class="shp13" d="M292.68 234.62L288.35 261.96L282 264.92L286.32 237.58L292.68 234.62L292.68 234.62Z" />
	</g>
	<g id="Mãos">
		<path id="Layer" class="shp14" d="M484.92 462.89L428.64 484.83C418.06 484.04 395.79 481.17 373.69 470.75C349.09 459.14 320.9 459.17 297 471.32C241.92 472.64 211.61 465.59 195.43 458.91L199.7 450.15L142.7 427.91L0 364L0 626L50 648.21L76.72 584L135.52 611.19L146.8 582.51L185.41 611.16L188.04 613.37L184.42 617.13C182.78 618.87 181.48 620.9 180.59 623.12C179.71 625.34 179.25 627.71 179.25 630.1C179.25 632.49 179.71 634.86 180.59 637.08C181.48 639.3 182.78 641.33 184.42 643.07L184.42 643.07C185.97 644.71 187.83 646.03 189.89 646.95C191.95 647.87 194.17 648.37 196.42 648.44C198.68 648.5 200.92 648.12 203.03 647.31C205.13 646.5 207.06 645.29 208.7 643.74C208.93 643.52 209.16 643.3 209.38 643.07L207.38 645.16C205.74 646.9 204.44 648.93 203.55 651.15C202.67 653.37 202.21 655.74 202.21 658.13C202.21 660.52 202.67 662.89 203.55 665.11C204.44 667.33 205.74 669.36 207.38 671.1L207.38 671.1C208.93 672.74 210.79 674.06 212.85 674.98C214.9 675.9 217.12 676.41 219.38 676.47C221.63 676.53 223.88 676.15 225.99 675.35C228.09 674.54 230.02 673.33 231.66 671.78L232.34 671.1L243.77 659.22L243.77 659.22L235.92 667.37C234.27 669.11 232.96 671.14 232.07 673.37C231.18 675.6 230.73 677.97 230.73 680.37C230.73 682.77 231.18 685.14 232.07 687.37C232.96 689.6 234.27 691.63 235.92 693.37L235.92 693.37C237.47 695.01 239.33 696.33 241.39 697.25C243.45 698.17 245.67 698.67 247.92 698.74C250.18 698.8 252.42 698.42 254.53 697.61C256.63 696.8 258.56 695.59 260.2 694.04C260.44 693.82 260.66 693.6 260.88 693.37L272.17 681.63L272.17 681.63L267.42 686.57C266.27 687.78 265.36 689.2 264.74 690.75C264.12 692.3 263.8 693.96 263.8 695.63C263.8 697.3 264.12 698.96 264.74 700.51C265.36 702.06 266.27 703.48 267.42 704.69C268.5 705.84 269.8 706.76 271.25 707.41C272.69 708.06 274.24 708.41 275.82 708.46C277.4 708.5 278.97 708.23 280.45 707.67C281.93 707.1 283.27 706.25 284.42 705.16C284.58 705.01 284.74 704.85 284.89 704.69L292.42 696.87C305.35 706.32 315.82 713.21 320.94 715C342.29 722.4 342.29 707.57 342.29 707.57C370.82 722.4 385.08 692.75 385.08 692.75C420.74 707.57 420.74 670.51 420.74 670.51C429.65 676.69 436.07 673.86 440.56 668.42C442.01 666.61 443.2 664.6 444.08 662.46C444.96 660.31 445.52 658.05 445.76 655.74C445.99 653.44 445.9 651.11 445.47 648.83C445.04 646.55 444.29 644.34 443.23 642.28L477.31 610.79L492.04 640.92L550.84 613.73L577.61 673.08L617.04 655.48L617.04 396.17L484.92 462.89Z" />
		<path id="Layer" class="shp15" d="M475.45 600.07L413.39 655.24L365.12 565.59L475.45 538.01L475.45 600.07L475.45 600.07Z" />
		<path id="Layer" class="shp16" d="M178.94 455.26C178.94 455.26 198.86 482.84 316.85 476L385.85 579.43L432.06 631.43C433.82 633.38 435.22 635.63 436.18 638.08C437.15 640.52 437.67 643.12 437.72 645.75C437.77 648.38 437.34 650.99 436.47 653.47C435.6 655.95 434.29 658.25 432.6 660.27C428.27 665.27 422.05 667.94 413.43 662.19C413.43 662.19 413.43 696.67 378.95 682.88C378.95 682.88 365.16 710.46 337.58 696.67C337.58 696.67 337.58 710.46 316.9 703.56C296.22 696.66 185.9 607.03 185.9 607.03L137.64 572.55L178.94 455.26Z" />
		<path id="Layer" class="shp15" d="M427.18 489.74C427.18 489.74 397.38 489.74 367.92 476.37C341.12 464.21 309.92 465.76 285.2 481.71C265.05 494.71 247.6 516.24 247.92 551.8C247.92 551.8 274.74 579.38 303.09 524.22L323.77 524.22C323.77 524.22 343.69 593.22 399.63 586.22C455.57 579.22 468.58 572.43 468.58 572.43L427.18 489.74Z" />
		<path id="Layer" class="shp15" d="M205.98 639.69L222.01 623.66C228.07 617.61 237.85 617.61 243.91 623.66L246.15 625.91C252.2 631.96 252.2 641.74 246.15 647.8L230.12 663.83C224.06 669.88 214.28 669.88 208.22 663.83L205.98 661.59C199.93 655.53 199.93 645.75 205.98 639.69Z" />
		<path id="Layer" class="shp15" d="M183.75 613.64L199.78 597.61C205.84 591.56 215.62 591.56 221.68 597.61L223.92 599.85C229.97 605.91 229.97 615.69 223.92 621.75L207.89 637.78C201.83 643.83 192.05 643.83 186 637.78L183.75 635.54C177.7 629.48 177.7 619.7 183.75 613.64Z" />
		<path id="Layer" class="shp15" d="M233.56 660.38L253.04 640.9C259.1 634.84 268.88 634.84 274.94 640.9L277.18 643.14C283.23 649.19 283.23 658.98 277.18 665.03L257.7 684.51C251.64 690.57 241.86 690.57 235.8 684.51L233.56 682.27C227.51 676.22 227.51 666.43 233.56 660.38Z" />
		<path id="Layer" class="shp15" d="M264.36 677.86L276.65 665.56C280.88 661.33 287.71 661.33 291.94 665.56L293.51 667.13C297.74 671.36 297.74 678.19 293.51 682.42L281.22 694.71C276.99 698.94 270.15 698.94 265.93 694.71L264.36 693.14C260.13 688.92 260.13 682.08 264.36 677.86Z" />
		<path id="Layer" class="shp10" d="M544.4 613.87L482.35 641.44L420.28 489.74L475.45 469.06L544.4 613.87L544.4 613.87Z" />
		<path id="Layer" class="shp10" d="M75.51 579.39L137.57 606.97L199.63 455.27L144.46 434.58L75.51 579.39L75.51 579.39Z" />
		<path id="Layer" class="shp4" d="M6.55 372.52L144.46 434.58L54.82 641.44L6.55 620.76L6.55 372.52L6.55 372.52Z" />
		<path id="Layer" class="shp4" d="M613.36 407L475.45 469.06L565.1 675.92L613.36 655.24L613.36 407L613.36 407Z" />
	</g>
</svg>