<svg id="Camada_1" data-name="Camada 1" xmlns="http://www.w3.org/2000/svg" viewBox="0 0 1431 995"><path d="M801.49,175.59c-87.82-2.31-171.48-23.8-251.35-47.31s-159-49.57-244.72-62c-55.14-8-118.19-9.15-162.62,13.25C100,101,86.23,138.3,78.81,172.8c-5.59,26-8.87,53.33,6.43,77.66,10.63,16.89,29.51,31.08,42.57,47.26,45.4,56.29,13.33,125.7-35.92,180.67-23,25.78-49.86,50.38-67.67,77.82s-26,58.89-10.48,86.89C29.2,670.86,66,691.69,105.89,706.35c81,29.79,176.45,38.31,269.52,43.13,206,10.69,413.17,6.06,619.75,1.43,76.45-1.72,153.23-3.45,228.45-12.42,41.75-5,84.87-12.87,115.18-31.94,38.49-24.22,48-65.19,22.23-95.54-43.22-50.89-162.85-63.52-193.08-118.17-16.65-30.07.45-63.57,24.63-91.5C1244.46,341.51,1331.44,289,1336,220.63c3.15-47-38.66-94-103.3-116.23C1164.94,81.07,1071,84,1021,122.59,969.51,162.36,879,177.64,801.49,175.59Z" style="fill:#e6e6e6"/><path d="M1367.26,946.18c-4.08,37.07-218.06,34-217.74,0C1153.6,909.12,1367.58,912.23,1367.26,946.18Z" style="fill:#e6e6e6"/><polygon points="1220.26 851.06 1211.59 869.86 1195.68 868.41 1185.57 835.16 1201.47 826.49 1220.26 851.06" style="fill:#ffb8b8"/><polygon points="1274.86 894.35 1275.2 907.45 1250.62 908.89 1250.62 892.99 1274.86 894.35" style="fill:#ffb8b8"/><polygon points="1266.52 655.89 1260.74 771.55 1275.2 897.33 1231.83 903.11 1204.36 744.08 1195.68 635.65 1266.52 655.89" style="fill:#2f2e41"/><path d="M1334.47,614s17.35,114.21-18.79,151.8-85.3,104.09-85.3,104.09l-34.7-43.37,88.19-94-17.35-63.61-70.84-33.26,11.57-79.51,104.09-1.45Z" style="fill:#2f2e41"/><circle cx="1249.18" cy="317.6" r="31.81" style="fill:#ffb8b8"/><path d="M1276.64,324.83s1.45,44.81,8.68,50.6-26,30.36-26,30.36l-21.69-34.7V339.28Z" style="fill:#ffb8b8"/><polygon points="1262.19 385.55 1279.74 359.04 1289.65 372.54 1304.11 413.02 1292.55 570.6 1224.6 572.04 1215.92 391.33 1237.61 365.31 1262.19 385.55" style="fill:#d0cde1"/><path d="M1188.46,395.67l-11.57-1.45s-2.89,1.45-4.34,11.57-18.79,99.75-18.79,99.75l23.13,109.87,26-34.69L1187,520l15.9-60.72Z" style="fill:#2f2e41"/><polygon points="1335.92 394.22 1344.59 394.22 1366.28 511.32 1346.04 602.4 1325.8 569.15 1331.58 533.01 1328.69 501.2 1318.57 482.41 1335.92 394.22" style="fill:#2f2e41"/><path d="M1207.25,864.08s8.67-2.9,8.67,2.89-5.78,23.13-5.78,23.13,8.68,53.49-4.34,50.6-23.13-27.47-24.57-34.7-8.68-44.82-8.68-44.82-11.56-27.46-4.33-28.91,27.46-7.23,27.46-7.23S1184.12,861.18,1207.25,864.08Z" style="fill:#2f2e41"/><path d="M1249.18,908.89s23.13-14.45,27.46-2.89a121.48,121.48,0,0,1,5.79,26s5.78,18.8-17.35,15.91-20.24-2.9-21.69-11.57S1249.18,908.89,1249.18,908.89Z" style="fill:#2f2e41"/><path d="M1268,317.6l-5.78-1.45s-4.34-24.57-14.46-21.68-36.14,5.78-36.14-5.79,24.57-21.68,39-20.24,39,5.79,37.59,27.47-10.77,42.78-10.77,42.78l-.76-12.85Z" style="fill:#2f2e41"/><polygon points="1237.61 402.89 1262.19 385.55 1237.61 365.31 1229.08 375.55 1237.61 402.89" style="fill:#d0cde1"/><polygon points="1283.87 401.45 1262.19 385.55 1279.54 359.52 1289.65 372.54 1283.87 401.45" style="fill:#d0cde1"/><path d="M1178.34,394.22l46.26-18.79,10.84-7.95L1268,511.32l21.69-65.05-6.51-83.13,60,31.08-20.24,98.31L1320,530.12l8.67,30.36s30.36,21.68,20.24,44.81-21.69,24.58-21.69,24.58-49.15-46.26-52-57.83-7.23-31.8-7.23-31.8-24.58,92.52-53.49,91.08-28.91-31.81-28.91-31.81l7.22-31.8,11.57-33.26-5.78-54.93Z" style="fill:#2f2e41"/><rect x="95.84" y="39.4" width="1007.85" height="645.47" style="fill:#b3b3b3"/><rect x="124.66" y="120.36" width="950.21" height="246.06" style="fill:#fff"/><rect x="361.01" y="155.9" width="200.95" height="11.54" style="fill:#e6e6e6"/><rect x="361.01" y="197.98" width="253.45" height="11.54" style="fill:#123f54"/><rect x="361.01" y="237.62" width="252.89" height="11.54" style="fill:#e6e6e6"/><rect x="361.01" y="277.11" width="147.63" height="11.54" style="fill:#e6e6e6"/><rect x="361.01" y="316.61" width="222.82" height="11.54" style="fill:#e6e6e6"/><rect x="269.42" y="151.8" width="24.61" height="24.61" style="fill:#e6e6e6"/><rect x="269.42" y="191.44" width="24.61" height="24.61" style="fill:#123f54"/><rect x="269.42" y="231.08" width="24.61" height="24.61" style="fill:#e6e6e6"/><rect x="269.42" y="270.73" width="24.61" height="24.61" style="fill:#e6e6e6"/><rect x="269.42" y="310.37" width="24.61" height="24.61" style="fill:#e6e6e6"/><rect x="859.96" y="207.85" width="82.02" height="82.02" style="fill:#e6e6e6"/><rect x="124.66" y="400.59" width="950.21" height="246.06" style="fill:#fff"/><rect x="311.8" y="422.46" width="24.61" height="24.61" style="fill:#e6e6e6"/><rect x="269.42" y="422.46" width="24.61" height="24.61" style="fill:#123f54"/><path d="M686.62,476.27a93.18,93.18,0,0,0-150.41-13.9l-6-5.24a101.12,101.12,0,0,1,163.26,15.08Z" style="fill:#e6e6e6"/><path d="M690.37,580l-6.61-4.44a93.21,93.21,0,0,0,2.86-99.29l6.85-4.06A101.17,101.17,0,0,1,690.37,580Z" style="fill:#123f54"/><path d="M531,591.1a101.12,101.12,0,0,1-.83-134l6,5.24A93.16,93.16,0,0,0,537,585.79Z" style="fill:#123f54"/><path d="M606.39,624.78A101.29,101.29,0,0,1,531,591.1l5.93-5.31a93.17,93.17,0,0,0,146.79-10.23l6.61,4.44A101,101,0,0,1,606.39,624.78Z" style="fill:#123f54"/><rect x="859.96" y="475.78" width="82.02" height="82.02" style="fill:#e6e6e6"/><rect x="266.01" y="529.09" width="82.02" height="82.02" style="fill:#e6e6e6"/><rect x="95.41" y="38.83" width="1007.85" height="42.82" style="fill:#123f54"/><circle cx="127.23" cy="60.72" r="7.94" style="fill:#fff"/><circle cx="157.35" cy="60.72" r="7.94" style="fill:#fff"/><circle cx="187.47" cy="60.72" r="7.94" style="fill:#fff"/><g id="Carro"><rect x="687.28" y="309.61" width="41.94" height="6.66" style="fill:#3f3d56"/><path d="M1032.49,311.1l-8.65,2-328.9.18-3-6.89a69.49,69.49,0,0,1-5.11-37.61c1.41-9.52,5-19,13-23.08l14.59-97.21,182-.33,70.41,56.78s33.2-.59,51.25,21.87c5.71,7.11,9.9,16.54,11,29l.72,11.69Z" style="fill:#123f54"/><circle cx="960.25" cy="309.48" r="40.61" style="fill:#3f3d56"/><circle cx="960.25" cy="309.48" r="21.38" style="fill:#ccc"/><circle cx="759.85" cy="309.58" r="40.61" style="fill:#3f3d56"/><circle cx="759.85" cy="309.58" r="21.38" style="fill:#ccc"/><polygon points="938.88 198.31 840.64 198.35 828.65 198.35 808.4 198.36 808.4 196.88 808.38 179.08 808.37 159.09 821.84 159.09 833.83 159.07 855.08 159.06 867.07 159.06 891.6 159.04 938.88 198.31" style="fill:#fff"/><polygon points="792.41 198.38 740.49 198.41 740.48 188.22 740.48 170.41 740.46 159.13 748.06 159.13 760.06 159.12 792.4 159.1 792.41 198.38" style="fill:#fff"/><rect x="808.41" y="227.66" width="6.66" height="12.65" style="fill:#ccc"/><rect x="912.27" y="209.63" width="12.65" height="6.66" style="fill:#ccc"/><path d="M916.92,184.73h.73a13.92,13.92,0,0,1,13.92,13.91h0a13.92,13.92,0,0,1-13.92,13.92h-.73V184.73Z" style="fill:#ccc"/><path d="M1029.85,267.53a21.51,21.51,0,0,1-11.74-40.72c5.71,7.11,9.9,16.54,11,29Z" style="fill:#ccc"/><polygon points="833.83 159.07 808.4 196.88 808.38 179.08 821.84 159.09 833.83 159.07" style="fill:#f2f2f2"/><polygon points="760.06 159.12 740.48 188.22 740.48 170.41 748.06 159.13 760.06 159.12" style="fill:#f2f2f2"/><polygon points="867.07 159.06 840.64 198.35 828.65 198.35 855.08 159.06 867.07 159.06" style="fill:#f2f2f2"/></g><circle cx="606.33" cy="524.24" r="92.92" style="fill:#fff"/><path d="M601.87,579.08V565.55c-6.83-.13-13.91-2.54-18-5.89l2.83-9a28.88,28.88,0,0,0,17,5.76c8.37,0,14-5.49,14-13.13,0-7.36-4.6-11.91-13.32-15.93-12-5.36-19.45-11.52-19.45-23.17,0-11.11,7-19.55,17.8-21.56V469.14H610v13a28.68,28.68,0,0,1,15.32,4.68l-3,8.84a26,26,0,0,0-14.85-4.55c-9.07,0-12.49,6.16-12.49,11.52,0,7,4.36,10.44,14.61,15.26,12.15,5.63,18.28,12.59,18.28,24.51,0,10.58-6.49,20.49-18.63,22.76v13.93Z" style="fill:#123f54"/><circle cx="1089.62" cy="663.18" r="71.91" style="fill:#123f54"/><polygon points="1044.34 670.29 1082.52 670.29 1082.52 708.46 1096.72 708.46 1096.72 670.29 1134.9 670.29 1134.9 656.08 1096.72 656.08 1096.72 617.91 1082.52 617.91 1082.52 656.08 1044.34 656.08 1044.34 670.29" style="fill:#fff"/></svg>