<svg id="Camada_1" data-name="Camada 1" xmlns="http://www.w3.org/2000/svg" viewBox="0 0 1204 875"><path d="M689.47,128.12C617,125.55,548,101.59,482.15,75.38S351,20.12,280.3,6.23C234.82-2.7,182.81-4,146.17,21,110.9,45,99.51,86.55,93.39,125c-4.61,29-7.32,59.45,5.3,86.57,8.77,18.83,24.34,34.65,35.11,52.68,37.45,62.75,11,140.13-29.62,201.4-19,28.74-41.13,56.16-55.82,86.75s-21.49,65.65-8.64,96.86c12.75,30.94,43.11,54.17,76,70.51C182.53,753,261.26,762.48,338,767.86c169.94,11.91,340.79,6.75,511.18,1.59,63.06-1.92,126.39-3.85,188.43-13.84,34.44-5.55,70-14.35,95-35.61,31.75-27,39.62-72.67,18.34-106.5-35.65-56.73-134.32-70.81-159.26-131.73-13.73-33.52.37-70.86,20.32-102,42.8-66.69,114.54-125.2,118.32-201.44,2.6-52.36-31.89-104.8-85.21-129.57-55.9-26-133.4-22.7-174.64,20.28C828.05,113.37,753.43,130.4,689.47,128.12Z" style="fill:#e6e6e6"/><g id="Ultra_OCR_" data-name="Ultra OCR®"><g id="CNH"><rect x="167" y="158.64" width="1000" height="668.83" rx="19.67" style="fill:#123f54;stroke:#123f54;stroke-miterlimit:10;stroke-width:3px"/><rect x="201.63" y="191.11" width="919.91" height="145.02" rx="7" style="fill:#e6e6e6"/><rect x="251.42" y="457.34" width="23.81" height="318.18" rx="5.34" style="fill:#e6e6e6"/><rect x="370.46" y="230.07" width="629.87" height="23.81" rx="5.5" style="fill:#123f54"/><path d="M985.36,291.25H379.73c-4.68,0-8.48-3-8.48-6.78h0c0-3.75,3.8-6.78,8.48-6.78H985.36c4.69,0,8.48,3,8.48,6.78h0C993.84,288.21,990.05,291.25,985.36,291.25Z" style="fill:#123f54"/><rect x="658.34" y="429.2" width="352.81" height="23.81" rx="5.5" style="fill:#e6e6e6"/><rect x="658.34" y="470.33" width="186.15" height="23.81" rx="5.5" style="fill:#e6e6e6"/><rect x="866.13" y="474.66" width="255.41" height="23.81" rx="5.5" style="fill:#e6e6e6"/><rect x="658.34" y="527.69" width="463.2" height="202.38" rx="5.5" style="fill:none;stroke:#fff;stroke-miterlimit:10;stroke-width:2px"/><rect x="697.3" y="561.24" width="402.6" height="23.81" rx="5.5" style="fill:#e6e6e6"/><rect x="697.3" y="595.87" width="101.73" height="23.81" rx="5.5" style="fill:#e6e6e6"/><rect x="889.94" y="775.52" width="231.6" height="23.81" rx="5.5" style="fill:#e6e6e6"/><rect x="374.79" y="775.52" width="257.58" height="23.81" rx="5.5" style="fill:#e6e6e6"/><path d="M799.78,364.27c8,0,14.41,5.33,14.41,11.9h0c0,6.58-6.45,11.91-14.41,11.91H354.56c-7.95,0-14.4-5.33-14.4-11.91h0c0-6.57,6.45-11.9,14.4-11.9" style="fill:#e6e6e6"/><rect x="340.16" y="405.39" width="296.54" height="339.83" rx="9.15" style="fill:#fff"/><rect x="224.36" y="206.26" width="97.4" height="114.72" rx="12.33" style="fill:#123f54;stroke:#123f54;stroke-miterlimit:10;stroke-width:3px"/></g><g id="Pessoa"><rect x="347.1" y="422.43" width="280.94" height="304.79" rx="17.48" style="fill:#e6e6e6"/><path d="M483.86,496.2a11.24,11.24,0,0,0-6.49,1.45,17.08,17.08,0,0,0-4.39,5.79,69.16,69.16,0,0,1-18.86,21.31c-5.61,4.11-12.74,9.23-11.78,16.8a22.76,22.76,0,0,0,2.74,7.1c5.17,10.44,19.28,18.5,17.89,30.42,5.14-8.61-1.73-12.86,3.41-21.46,2.44-4.1,6.69-8.72,10.39-6.15,1.23.86,2.05,2.41,3.33,3.16,3.08,1.81,6.35-1.64,9.07-4.08,9.38-8.42,22.72-6.22,34.39-3.59,5.51,1.23,11.57,2.86,14.83,8.13,4.28,6.92-4.07,14.4-6.18,22.23a4.26,4.26,0,0,0,4.57,5.31c3.51-.34,7.66-.63,7.86-2.16,4.41.15,9.81-.35,11.7-4.94a19,19,0,0,0,.9-5.61c.7-7.71,4-14.74,6.14-22.07s3.11-15.94-.55-22.44a26.1,26.1,0,0,0-4.79-5.83C537.28,499.49,510,496.17,483.86,496.2Z" style="fill:#2f2e41"/><path d="M467.49,594.11s4.51,37.62-12,40.63,15.05,54.17,15.05,54.17l75.23,9-18.06-60.18s-12-4.52-4.51-34.61S467.49,594.11,467.49,594.11Z" style="fill:#9f616a"/><circle cx="501.34" cy="573.8" r="45.14" style="fill:#9f616a"/><path d="M423.65,727.22c8-31.39,19-73.67,19-73.67s4.29.88,11,1.87a260.28,260.28,0,0,0,29.77,2.7c12.76.36,26.18-.48,36.57-4.08a34.13,34.13,0,0,0,10.8-5.77,20.41,20.41,0,0,0,3.62-3.75c18-24.07,25.57,67.71,25.57,67.71l1.4,15Z" style="fill:#123f54"/><path d="M486.05,508a10.22,10.22,0,0,0-5.27,1,12.45,12.45,0,0,0-3.58,4.09,51.85,51.85,0,0,1-15.35,15.06c-4.57,2.91-10.37,6.53-9.59,11.88a15,15,0,0,0,2.23,5,39.48,39.48,0,0,1,4.79,24.57l12.79-18.59a11.08,11.08,0,0,1,4-3.64c4.33-2.22,4.92.86,6.93,1.88,2.5,1.28,5.16-1.16,7.38-2.88,8.48-6.61,20.93-4,31.09-1.93a17.07,17.07,0,0,1,5.64,2.1c9.62,6,2.68,16.88,5.71,25.31a6.54,6.54,0,0,0,2.72-4.34c3.59.11,8-.24,9.52-3.48a12,12,0,0,0,.74-4c.56-5.45,3.22-10.42,5-15.6s2.53-11.27-.45-15.86a19.07,19.07,0,0,0-3.9-4.12C529.54,510.33,507.33,508,486.05,508Z" style="fill:#2f2e41"/><path d="M481.78,655c-10.3-11.76-16.41-28.92-16.69-29.69v0s-16.42-9.4-20.93-.37S397.52,656.55,393,656.55l-.11,0c-1.79.6-24.21,8.75-30,39.09a226.63,226.63,0,0,0-2.5,31.54h122.7c1.27-13.3,2.22-25.74,2.6-36.48.54-15,0-26.61-2.26-32.62A9.64,9.64,0,0,0,481.78,655Z" style="fill:#2f2e41"/><path d="M587.29,663.51c-.08-.35-.13-.65-.19-.93a6.87,6.87,0,0,0-1-2.24s0,0,0-.06c-8.69-13.46-64.58-32-64.58-32l-2.09,7.22s.26,7.12.63,18.54c.38,10.68.82,25.12,1.25,41,.3,10.35.56,21.32.8,32.21H605.7A489.67,489.67,0,0,0,587.29,663.51Z" style="fill:#2f2e41"/></g></g></svg>